<svg version="1" xmlns="http://www.w3.org/2000/svg" width="533.333" height="533.333" viewBox="0 0 400.000000 400.000000"><path d="M17.3 11.3c.8 16 1.6 22.9 2.9 24.5.9 1 .9 1.5-.1 2.1-.9.6-1.1 2.3-.6 6.5.4 3.1 1 5.6 1.4 5.6.4 0 .7 1 .8 2.2.1 1.1.6 2.4 1 2.7.5.3.9 1.4 1 2.3.2 4.3.4 4.8 1.8 4.8 1.6 0 3.7 4.1 2.6 5-.4.3-.6 1.1-.5 1.7.1.7.2 1.8.3 2.4 0 .5.7.7 1.3.3 1-.5 1-.4.1.6-.8.9-.7 1.6.8 3.1 1 1 1.6 2.5 1.3 3.2-.3.8.2 2 1.1 2.7.8.7 1.5 1.6 1.5 2.1 0 .4.5 2 1.2 3.6.6 1.5 1 3.4.9 4.2-.1.8.2 1 .9.6.9-.5 1-.1.5 1.4-.4 1.4-.2 2.1.7 2.1 1.1 0 1.1.2 0 .9-1 .6-1 1 .3 2.1.8.7 1.5 1.8 1.5 2.4 0 .6-.5.4-1-.4-.8-1.1-.9-.7-.4 1.5.4 1.6.7 3.5.7 4.2 0 .7.4 1.3.9 1.3.4 0 .8 1.1.8 2.5 0 2.8 1.6 3.4 2.3.7.2-.9.2-.2 0 1.6-.4 3.2 1.8 7.8 3.1 6.5.4-.4.4 0 .1.9-1 2.5 1.2 11.4 4.2 17.8 2.5 5.3 2.9 6.8 3.2 15.3 0 2.2.5 3.6 1.1 3.2.5-.3.5.6-.1 2.4-.6 1.7-.8 6-.5 9.8.4 3.7.9 11.5 1.1 17.3.3 5.8 1 11.7 1.6 13.2 1.2 2.9.5 6.3-1 5.3-.5-.3-1.3 0-1.7.6-.4.8-.3.9.4.5 1.1-.7 1.4-.3 1.6 2.6.1.7.3 1.5.6 1.8.7.6 2.9 13.3 2.4 13.9-.2.2-.7-.6-1.2-1.8-.6-1.6-.8-.3-.8 4.1 0 5.5-.7 15.5-1.8 24-.2 1.5.3 4 1.1 5.5.9 1.7 1.7 7 2 13.4.5 10.1.5 10.7-1.5 11.8-2.1 1.1-2.1 1-1.2-1.6.9-2.4.8-2.6-.3-1.1-1.2 1.5-1.4 1.5-2.5-.3-1-1.6-1.5-1.7-2.6-.7-.8.7-1.2 1.7-.9 2.3.2.5-.2.1-1.1-.9-1.3-1.6-1.8-1.7-3.1-.6-.8.7-1.5 1.8-1.5 2.5 0 .6-1 2-2.2 3.1-2.1 1.9-2.1 1.9-1.1 0 .8-1.4.7-2.3-.1-3.2-.9-1-1.8-.4-4.2 2.3-2.9 3.3-5.4 3.8-5.4 1.1 0-.7.6-.6 1.5.2 1 .9 1.5.9 1.5.1 0-.6-.5-1.1-1.1-1.1-.6 0-.8-.7-.5-1.7.6-1.5.5-1.6-1.1-.1-1 .8-2.5 1.8-3.3 2.1-1.1.4-1 .6.5.6 1.8.1 1.8.2.2 1.8s-1.9 1.6-2.7.3c-.5-.8-1.1-1.8-1.2-2.3-.2-.4-1.8-.9-3.6-1.2-2.6-.3-3.2 0-2.8 1 .3.8 0 1.2-.7 1-4.9-1.5-6.7-1.5-6.7 0 0 1-.7 1.5-1.8 1.3-2.3-.4-4.1-2.1-3.4-3.3.3-.6-.2-.4-1.1.4-1.9 1.5-2.3.1-.5-1.7.8-.8.8-1.5 0-2.5-.7-.8-.9-1.7-.5-2.1.4-.4-.1-.4-1.2-.1-1.9.6-1.9.6-.2-.8.9-.8 1.7-2 1.7-2.7 0-1-.3-1-1.5 0-1.3 1.1-1.4 1-.9-.4.4-1 1.8-2.2 3.1-2.7 2.6-1 2.2-3.1-.4-2.7-.9.2-1.8-.3-2.1-1.1-.3-1 0-1.2 1.2-.8 1 .4 1.5.3 1.1-.3-.3-.6-1.3-1-2.1-1-2.2 0-1.6-2.8.8-3.6 1.9-.6 1.9-.7.5-1.6-1-.5-1.7-1.6-1.7-2.4 0-.8.5-1.2 1-.9.6.3 1 .2 1-.2 0-1.1-2.1-3.3-3.2-3.3-.5 0-.8 6.8-.7 15 0 11.2.3 14.8 1.2 14.3.9-.5.9-.3.1.8-.6.8-1.2 4.2-1.3 7.6l-.2 6.2 3.5-1.4c2-.8 4.6-1.5 5.9-1.5 1.2 0 5-.7 8.2-1.6 3.3-.9 8.9-2.2 12.5-3 3.6-.7 9.4-2 13-2.9 19.4-4.5 23.3-4.4 25.5.8.7 1.8 1.7 3.6 2.1 4 .5.4.7 2.5.5 4.6-.1 2.1.5 5.5 1.3 7.6 1.2 2.7 1.2 3.6.3 3.2-.9-.3-1.1 1.2-.7 6.7.4 3.9.2 7.3-.2 7.4-.5.2-.4 1 .2 1.8 1.5 1.7 2.7 11.4 3.4 27.9.7 14.7 1.5 22 2.7 25.2.7 1.9 1.2 2.1 4 1.3 4-1.2 4.9-.5 2.6 1.7-.9 1-1.7 1.2-1.7.6 0-1.5-3.7-.5-4.3 1.1-.4.9.2 1.1 1.9.8 2.8-.5 2.8-.8.8 5.4-2.2 6.9-3.5 9.4-4.7 8.7-.5-.3-.7 0-.5.8.3.8.1 2.4-.3 3.6L75 400h128.4c115.2 0 128.5-.2 129.7-1.6 1.1-1.4 1.3-1.4 2.1 0s3.6 1.6 18.8 1.6c10.8 0 18.1-.4 18.5-1 .3-.5.1-1-.5-1-.7 0-.9-.7-.6-1.6.5-1.2.2-1.5-.9-1-.9.3-1.3.2-1-.4.3-.6.1-1-.6-1s-1-.3-.6-.6c.3-.3-.5-2.6-1.9-5.1-1.3-2.5-2.4-5.2-2.4-5.9 0-.8-.4-1.4-1-1.4-.5 0-1-.9-1-2s-.4-2-.8-2c-.8 0-4.6-11.4-7.2-21.8-.8-3.1-1.5-4.2-2.6-3.8-.8.3-1.4.1-1.4-.4 0-.6.5-1 1.1-1 .7 0 .9-1.2.5-3.3-.3-2 0-3.9.9-5.1 1.3-1.8 1.2-2.3-1.2-5.5-1.5-1.9-3.5-4.3-4.6-5.4-1-1-1.5-2.3-1.1-2.9.4-.6.3-.8-.3-.5-.6.4-2.3-.5-3.9-1.9s-5.3-4.4-8.1-6.6c-2.9-2.2-5.3-4.4-5.3-4.9s-.8-.9-1.7-1c-1.1 0-1.3-.3-.5-.6 1.6-.6 1.5-3.3-.3-5.7-.8-1.1-1.5-2.7-1.5-3.6 0-.9-1.1-2.7-2.5-4-2.3-2.2-4.7-7.5-5.9-13.1-.6-3-6.2-10.9-7.6-10.9-.7 0-1 5.6-.9 15.7.2 15-1.1 26.6-3.3 30.3-.7 1.1-.8 1-.4-.5 1.2-4.5 1.1-18.8-.2-19.3-.6-.2-1.2-1.2-1.2-2.3 0-1-.7-1.9-1.5-1.9s-1.5.9-1.5 2-.7 2-1.5 2c-1.8 0-2 1.7-.3 2.2.7.3.4.7-.7 1.2-1.1.4-1.6.4-1.2 0 .4-.4.2-1.4-.5-2.1-.9-1.1-.9-1.6.1-2.3 1.1-.6 1.1-1.2-.1-2.9-1-1.4-1.4-3.8-1.2-6.6.3-3.4 0-4.5-1.1-4.5-.8 0-1.5-.8-1.6-1.8 0-.9-.2-2.5-.4-3.5-.2-.9 0-1.7.5-1.7 1.7 0 1.7-5.2-.1-7.3-1.6-1.9-2-2-2.9-.7-.8 1.3-1.5 1-4-1.8-1.7-1.7-3.7-3.2-4.4-3.2-1.8 0-5.8-5.7-4.5-6.5.6-.4.8-1.3.5-2.1-.3-.8-.1-1.4.4-1.4.6 0 1-.7 1-1.5s1-2.4 2.2-3.5c1.9-1.8 2-2.2.8-3-2.3-1.5-4.2-1.2-6.5 1-2.1 1.9-6.5 1.8-6.5-.2 0-1.7 9.4-10.8 11.3-10.8 1.5 0 2.4-2.8 1.8-6.3-.3-1.8 3.8-.4 5.3 1.8.9 1.4 2.6 2.5 3.7 2.5 1.9 0 2-.4 1.4-4-.4-2.1-.3-4.5.2-5.2.4-.7.8-3.4.8-6 0-2.5-.2-4.2-.6-3.7-.3.5-1.5-.2-2.7-1.6-1.2-1.4-3.1-2.5-4.3-2.5-1.1 0-1.8-.4-1.5-.9.3-.5-.2-.8-1.2-.7-1.1.1-1.7-.6-1.6-2 0-1.5-.5-2-1.6-1.7-1.1.3-2.6-1-4.4-3.7-2.4-3.7-2.8-6.8-.5-5.5.5.4.9.2.9-.3 0-.6 1.2-1.3 2.8-1.7 1.5-.3 3.6-1.4 4.7-2.4 1.1-.9 4.7-2.8 8-4 10.9-4.3 13.4-8.2 14.2-22.8.3-5.1 1-9.3 1.4-9.3.5 0 .9.7.9 1.5s.5 1.5 1.1 1.5c.5 0 .8.4.5.9-.7 1.1.3 4.1 1.4 4.1.5 0 .6-1 .2-2.2-.4-1.7-.2-2 1.1-1.5 1 .4 1.7.5 1.7.4 0-.1-.7-2.4-1.5-5.1-1.8-5.8-1.9-6.9-.5-6.1.6.3 1 1.5 1 2.6s.5 1.7 1 1.4c.6-.3 1-.1 1 .6s.3 1 .6.7c.3-.4 0-1.6-.6-2.8-.7-1.3-.8-2-.2-1.6.6.3 1.2.1 1.5-.6.2-.7.3-.5.2.4-.3 1.5 0 1.6 1.7.7 1.3-.7 1.8-.7 1.4-.1-.3.6.2 1.3 1.1 1.5 1.4.4 1.3.5-.4.6-1.2 0-2.5.6-2.9 1.2-.4.8.1.9 1.7.3 1.3-.4 4.3-.7 6.7-.6 2.3.1 4.2-.1 4.2-.4 0-.2-.7-2.1-1.5-4-.8-2-1.2-4-.9-4.5.3-.5 0-.9-.5-.9-.6 0-1-.6-.9-1.2.2-.7-.4-1.3-1.2-1.3-.8 0-1.4.8-1.4 1.7.1 1-.2 1.8-.7 1.8-.5 0-.9-.6-.9-1.4 0-.8-1.1-2.4-2.4-3.7-1.3-1.3-2.2-2.9-1.9-3.6.3-.7-.2-1.3-1-1.3-1.2 0-1.3-.7-.6-4.2.6-2.3.6-4.4.1-4.7-2.1-1.5-6.3-8.1-5.2-8.1.8 0 1.1-.2.8-.5-.9-.9-3.8.7-3.8 2.1 0 1.6-1.9 1.9-2.1.4-.1-.6-.3-1.5-.4-2-.1-.6-.3-1.6-.4-2.3 0-.6-1.7-3-3.6-5.1-3.4-3.8-4.8-7.5-2.3-6 .8.5.9.2.5-.9-.3-1-.2-1.8.3-1.8.6-.1 1.6-.2 2.3-.3.6 0 1.3-1.5 1.4-3.1.2-2.6.1-2.7-.7-1-.9 1.6-.9 1.4-.5-1.3.4-3.1-.8-4.5-1.8-2-.4 1-.7 1-1.8 0-.7-.6-2.1-1.2-3-1.2-1 0-2.1-.5-2.4-1-.4-.6.5-1 2.4-.8 1.6.1 2.7.6 2.5 1-.9 1.4 2.1.9 4.4-.8 2.1-1.4 2.7-1.2 2.2 1.1-.1.5.2.7.6.2.9-.9 1.3-8.8.4-8.2-.4.2-1.2-.7-1.9-2.1-.9-2.2-1.4-2.4-2.6-1.4-1.2 1-1.5.9-1.5-.4 0-.9-.4-1.6-.9-1.6s-.7 1-.4 2.2c.3 1.5-.6.7-2.5-2.2-5-7.4-8.1-10.8-8.2-8.8 0 2.1-1.6 2.4-2.3.5-.4-.9-.8-.8-1.7.3-1 1.3-1.1 1.3-.9 0 .3-2.2-1.2-5.1-2.2-4.4-.5.3-1.2-.2-1.5-1.1-.6-1.3-.8-1.4-1.5-.3-.5.7-.9 2.3-.9 3.5 0 1.2-.5 2.5-1.2 2.9-.8.5-.9.2-.5-.9.9-2.5-.8-2.1-2 .5-1.1 2.5-5.8 3.4-4.7.9.3-.9.8-2.5 1-3.6l.4-2-.9 2c-.7 1.4-1 1.5-1 .5-.2-2.7-2.1-8.5-3.5-10.2-1.1-1.5-1.7-1.6-3.9-.5-1.5.6-2.7 1.6-2.7 2.2 0 .5-.4.4-.9-.4-.5-.7-1.4-1-2-.7-.6.4-.9 1.1-.7 1.5.3.4-1.1.6-3 .5-3.1-.3-3.3-.2-2.4 1.7.6 1.1 1.5 1.7 2.1 1.4.5-.4.9-.1.9.4 0 1.5-2.3 1.4-3.8-.1-.9-.9-1.2-.9-1.2.2 0 1.2-.2 1.2-.8.2-.5-.7-2.7-1.3-4.9-1.5-2.3-.1-4-.4-3.8-.6.7-.6-2-2.8-4.4-3.6-1.8-.5-2-.9-1-1.6.8-.4 1.9-.3 2.7.3 1.6 1.3 5.2 1.8 5.2.8 0-.7-1.5-1.4-7.5-3.5-1.8-.7-1.7-.9 1-2.1 1.9-.8 2.4-1.3 1.2-1.4-1 0-2-.6-2.3-1.4-.3-.8-2.4-2.2-4.6-3.1-2.3-.9-5-2.7-6.1-4.1-1-1.4-2.1-2.3-2.4-2.1-.5.6-7.9-1.2-11.6-2.8-1.4-.6-1.5-1-.6-2.1.7-.8.9-1.7.6-2-.9-.9-2.7.5-2.7 2.2 0 .8-.5 1.4-1.1 1.4-.6 0-1.7.7-2.5 1.5-2 2-5.8 2-5.1.1.3-.8.1-1.7-.6-2-.7-.3-.2-.3 1 0 1.7.4 2.3.1 2.3-1.1 0-2.3-3.3-1.5-4.4 1.1-.5 1.1-2.2 2.8-3.8 3.7-2.6 1.5-2.8 1.5-2.8-.1 0-1 .5-2.3 1.1-2.9.8-.8.7-1.3-.1-1.8-.7-.4-1.6-.1-2.1.6-.5.8-.9.9-.9.4 0-1.7 2.1-3.4 3.6-2.8.8.3 1.7-.2 2-1.2.4-.9 1.6-1.5 2.8-1.4 2.2.2 4.2-.4 9.1-2.6 1.7-.8 4-1.5 5.3-1.7 1.2-.2 2.1-.7 2-1.2-.2-.5.6-1.2 1.8-1.6 2.3-.9 2.3-1.8-1.3-19.3L207.7 0h-3.5c-3.4 0-3.4 0-2.7 3.7 1.2 6.4 2.3 15.8 1.8 16.5-.2.5-1.7.8-3.3.8-1.6 0-3.2.5-3.6 1.1-.5.8.3 1 2.5.7 4-.6 4.7.4 2 2.8-1.6 1.5-2.2 1.6-2.8.5-.5-.8-1.4-1-2-.6-.9.5-.9 1-.1 2s.8 1.9-.2 3.4c-1.5 2.4-3.8 2.8-3.8.6 0-.8.4-1.5 1-1.5 1.3 0 1.1-4.8-.3-7.8-.9-1.8-.8-2.6.3-3.3 1.2-.8 1.2-1.2.2-1.6-.6-.2-.9-.9-.6-1.5.4-.6-.2-.6-1.4.1-4 2.1-4 2.1-4.6-6.7-.3-3.8 0-5.2 1-5.2.7 0 1.7-.6 2.1-1.4.4-.8 1.9-1.6 3.3-1.8 1.4-.3-37.7-.6-86.9-.6L16.7 0l.6 11.3zM51 3.4c0 .3-.4.8-1 1.1-.5.3-1 .1-1-.4 0-.6.5-1.1 1-1.1.6 0 1 .2 1 .4zm98.7 2.2c-.9.9-2.8-.6-2.1-1.8.4-.6 1-.6 1.7.1.6.6.8 1.3.4 1.7zM173.5 4c-.3.5-1.2 1-1.8 1-.7 0-.6-.4.3-1 1.9-1.2 2.3-1.2 1.5 0zM159 6c0 .5-.4 1-1 1-.5 0-1-.5-1-1 0-.6.5-1 1-1 .6 0 1 .4 1 1zm-13.3 2.2c.2 1.8 0 2-.7.8-1.2-1.8-1.3-3-.2-3 .4 0 .9 1 .9 2.2zm-16.2.8c-.2 3.3-1.7 4.1-5.4 3-3.5-1-5.1-.6-5.1 1.1 0 .6.4.8.9.4 1.1-.6 6.1 1.5 6.1 2.7 0 1-.3 1-3.4-.2-1.4-.5-2.6-.8-2.6-.6 0 .3-.3 1.3-.6 2.3-.5 1.5-.4 1.5.5.3.8-1.2 1.1-1.2 1.1-.1 0 1.1.3 1.1 1.5.1s1.5-1 1.5.4c0 .9-.6 1.6-1.2 1.6-.7 0-2.4.3-3.7.7-2.1.5-2.3.3-1.9-1.5.4-1.2.2-2.5-.3-2.8-1.5-.9-1-3.2 1.4-5.8 2-2.2 2.5-2.3 4.7-1 3.3 1.7 5.4 1.8 4.7 0-.3-.8-.3-1.7 0-2 1.2-1.2 2-.6 1.8 1.4zm21.5 2c0 .5-.5 1-1.1 1-.5 0-.7-.5-.4-1 .3-.6.8-1 1.1-1 .2 0 .4.4.4 1zm-4 6c0 .5-1.2 1-2.7.9-2.5 0-2.6-.1-.8-.9 2.7-1.2 3.5-1.2 3.5 0zm-71 2c0 .5-.6 1-1.4 1-.8 0-1.8-.5-2.1-1-.3-.6.3-1 1.4-1 1.2 0 2.1.4 2.1 1zm114.2 1.6c.3.3.4 1.4.1 2.5-.6 2-3.7 2.6-4.8.8-.5-.6-1.3-.2-2.3 1.2-1.1 1.6-1.2 2.4-.4 2.7.7.2 1.2 1.1 1.2 2 0 1.2-.4 1.1-2.1-.7-2.9-3.1-1.9-6.5 2.3-7.8 4-1.3 5.3-1.5 6-.7zM96.3 24c.3 1.1.1 2-.4 2s-.9-.9-.9-2 .2-2 .4-2 .6.9.9 2zm108.2 3c-.3.5-1.1 1-1.6 1-.6 0-.7-.5-.4-1 .3-.6 1.1-1 1.6-1 .6 0 .7.4.4 1zM76 28c0 .5-.5 1-1.1 1-.5 0-.7-.5-.4-1 .3-.6.8-1 1.1-1 .2 0 .4.4.4 1zm40.8 1.8c1.2-1 1.4-1 .8-.1-.4.8-.2 1.3.6 1.3s1.4.8 1.5 1.8c.1 1-.5 1.9-1.3 1.9s-1.4-.6-1.4-1.4c0-2.5-1.9-1.3-2.3 1.4-.2 1.7-.4 1.1-.5-1.7 0-2.5.2-3.9.5-3.2.4 1 .8 1 2.1 0zm54.7.2c.3.6-.4 1-1.7 1-1.8 0-2-.2-.8-1 1.9-1.2 1.8-1.2 2.5 0zm18.5-.3c0 .5-.5 1.5-1 2.3-.9 1.3-1.1 1.3-2 0-1.5-2.2-1.2-3 1-3 1.1 0 2 .3 2 .7zM143.6 35c.4 1.6 1 2.7 1.4 2.5.5-.3.6-1.4.3-2.5-.7-2.6 1.8-3.5 4.8-1.9 1.3.7 3.9 1.1 5.8 1.1 1.9-.1 3.8.3 4.2.9.7 1.2-4.9 7.9-6.5 7.9-.6 0-2.3.7-3.8 1.4-1.6.8-3.7 1.4-4.7 1.3-1.6-.1-1.9-.7-1.4-2.8.3-1.8 0-2.8-1.1-3.2-1-.4-1.6-.1-1.6.8 0 .8-.4 1.5-1 1.5-.5 0-1-.5-1-1.1 0-2-2 .3-2.1 2.4 0 2.1-.1 2.1-.9.2-1.7-4-1.1-7.5 1.4-8.5 1.3-.5 2.7-1.4 3.1-1.9 1.2-2 2.5-1.1 3.1 1.9zm-63.1 2.2c-.1 1.8.4 3.6 1 4 .6.5.6.8-.2.8-.7 0-1.3.7-1.3 1.5 0 1.6-1.6 2-2.4.6-.3-.5.1-1.1.9-1.4 1.4-.6 1.3-3.5-.1-5.8-.3-.6 0-1.5.7-2 .8-.5 1.4-.9 1.4-.9v3.2zm83.5-2.8c0 .3-.4.8-1 1.1-.5.3-1 .1-1-.4 0-.6.5-1.1 1-1.1.6 0 1 .2 1 .4zm0 6.2c0 1.6-1.6 1.9-2.5.4-.8-1.3.4-3.2 1.6-2.5.5.4.9 1.3.9 2.1zm-33.5-.8c-1.1.4-2.1 1.7-2.3 3.1-.1 1.7.2 2.2 1.3 1.8.8-.4 1.7-.2 2 .3.7 1.1-.5 4-1.7 4-.5 0-1.6.7-2.4 1.5-1.5 1.4-1.4 1.6.3 1.4 1.3-.1 2.2 4 1.4 6.8-.4 1.5-.6 3.4-.3 4.2.3.8 0 1.1-.6.7-.5-.3-2-.2-3.3.2-2 .8-1.7 1 2 1.5 2.4.3 5.1.2 6-.3 8-4 9.1-3.7 9.1 1.9 0 2 .5 4.2 1.1 4.8.7.7 0 .9-2.5.7-2.6-.2-3.6.2-3.6 1.2 0 .8-.8 1.5-1.7 1.6-1 0-2.3.2-3 .2-.6.1-1.5.5-1.9.9-.4.4-2 .7-3.5.7s-3.1.4-3.4 1c-1.4 2.3-3.5.9-3.3-2.3.1-3.8-1.1-9.5-2.2-10.2-.4-.3-.4-2.3.1-4.6.5-2.2.7-4.4.4-4.9-.3-.5-.1-1.1.5-1.5.5-.3 1-.1 1 .5 0 .7.7.5 1.6-.4.8-.9 1.8-1.6 2.2-1.6.4 0 1.2-1.1 1.9-2.5 1-2.2.9-2.5-.8-2.5-1.2 0-1.9-.7-1.9-2 0-1.1.5-2 1-2 .6 0 1-.9 1-1.9 0-2.2 1.3-3 5-2.9 2.2 0 2.2.1.5.6zm-43 2.2c-.3.5-1.6 1-2.8.9-2-.1-2-.2.3-.9 1.4-.4 2.6-.8 2.8-.9.2-.1 0 .3-.3.9zm73.8 2.5c.9.8 1.7 2 1.9 2.7.3.7 1.9 1.3 3.8 1.3 1.8 0 3.5.6 3.7 1.2.3.7-.2 1.3-1.1 1.3-.9 0-1.6.4-1.6 1 0 .5-.9 1-2.1 1-1.3 0-1.8-.4-1.3-1.2.5-.8-.4-.9-3.2-.5-2.1.4-5.2.7-6.9.8-2.7.1-2.5.2 1 .9 2.7.5 4.3.4 4.8-.4.5-.7.7-.3.5.9-.3 1.7.2 2 2.9 1.7 3.4-.3 5.4 1.5 3.2 2.9-1 .6-.8.9.9.9 1.2 0 2.2-.5 2.2-1 0-.6.8-1 1.7-1 1.9 0-3.3 4.2-8.2 6.6-1.7.8-4.4 2.6-6 4.2-1.6 1.5-3.3 2.6-3.7 2.4-.5-.1-.8.2-.8.7 0 1.2-4.5 2.2-6.5 1.5-1.3-.5-1.6-1.5-1.2-4 .3-1.9.2-3.4-.4-3.4-.5 0-.9-.9-.9-1.9 0-1.9 4.5-3.8 13.3-5.6 4.5-.9 3.1-2.5-2.3-2.5-2.7 0-5 .4-5 1 0 1.6-4.6 4.1-6.4 3.4-2-.8-2.1-2.4-.2-2.4.8 0 1.3-.8 1.2-1.8-.2-1.2-1.3-1.7-3.7-1.8-2 0-3.3-.6-3.1-1.2.3-1.6-.7-1.5-2.5.3-1.2 1.2-1.3 1.9-.3 3 1.3 1.6 1 1.8-1.3.9-2-.7-1-4 1.9-5.9 1.3-.8 4.4-1.8 6.9-2.2 2.5-.3 4.8-1 5.1-1.4.3-.5 1.7-.9 3.2-.9 1.5 0 3.6-.7 4.6-1.5 2.5-1.9 4.1-1.9 5.9 0zm14.7.5c0 .5-.7 1-1.6 1-.8 0-1.2-.5-.9-1 .3-.6 1-1 1.6-1 .5 0 .9.4.9 1zm-6 1c0 .5-.4 1-1 1-.5 0-1-.5-1-1 0-.6.5-1 1-1 .6 0 1 .4 1 1zm-81.5 2c-.3.5-1.2 1-1.8 1-.7 0-.6-.4.3-1 1.9-1.2 2.3-1.2 1.5 0zm29.4.7c.8 1.5 1.1 1.5 2.5.3 1.3-1 2-1 2.8-.2.9.9.7 1.2-1 1.2-1.2 0-2.2.4-2.2 1 0 .5-1.2 1-2.6 1-1.8 0-2.5-.4-2.1-1.4.3-.7 0-1.9-.6-2.5-.8-.8-.7-1.1.6-1.1.9 0 2 .8 2.6 1.7zm-37.9 5c0 1.6.2 1.6 1.1.3.8-1.1 1.2-1.2 1.6-.3.7 1.8 2.6 1.6 1.9-.2-.3-.9 0-1.5 1-1.5s1.4.6 1.1 1.4c-.3.8-.1 1.7.6 2 .7.2-.3.5-2 .5-1.9.1-3.3.6-3.4 1.3 0 1-.2 1-.6 0-.3-.9-1.6-1.1-3.9-.6-2.3.4-3.4.2-3.4-.5s.4-1 .9-.7c1.5 1 4-.5 3.4-2-.3-.8 0-1.4.6-1.4s1.1.8 1.1 1.7zm97.6.4c.3.6 0 1.5-.7 2-2.2 1.4-2.8 1.1-2.2-1.1.6-2.2 1.8-2.6 2.9-.9zm-5.1.9c.3.5.1 1-.4 1-.6 0-1.1-.5-1.1-1 0-.6.2-1 .4-1 .3 0 .8.4 1.1 1zm-98.4 3l2.4 2.2-2.3-1.2c-1.3-.6-3-.9-3.8-.6-.8.3-1.4.1-1.4-.4 0-1.3-4.6-1.3-7.1 0-1.2.7-1.9.7-1.9.1 0-3.4 10.6-3.5 14.1-.1zM92 56c0 .5-.7 1-1.5 1s-1.5-.5-1.5-1c0-.6.7-1 1.5-1s1.5.4 1.5 1zm6.5.6c1.4.9 3.1 1.4 3.9 1.1 1.1-.4 1.3-.1.9 1.1-.3.9-.3 1.4.2 1 .4-.4 1.2-.2 1.9.5 1.4 1.5 4.6 10.6 4.6 13 0 1.1.4 1.5 1.2 1.1.6-.4.8-.3.5.3-.7 1.1 2.7 15 4.7 18.8.9 1.7 1.6 2.2 1.9 1.3.2-.7.2-.1 0 1.4-.3 1.6 0 2.8.5 2.8s1.2 1.2 1.5 2.7c1.1 5.5 3.6 12.8 3.6 10.8.1-1.1.4-1.6.9-1 .4.6 1.6 1.1 2.7 1 2.8 0 4.3 8.1 2.5 13.5-1.1 3.4-1 4.4.5 7.5.9 2 1.5 4.5 1.2 5.6-.3 1-.2 1.9.2 1.9s.6 1.9.4 4.2c-.4 6.7 1.6 19.5 3.6 23.1 1 1.8 2.4 5.3 3 8 .6 2.6 1.9 5.6 2.9 6.7.9 1.1 2.6 5.3 3.7 9.3 1.1 3.9 2.6 7.2 3.2 7.2.6 0 1.5.3 1.9.7.3.4-.3.6-1.5.3-1.8-.3-2.1.1-2.1 2.6 0 1.7.4 2.8 1 2.4.5-.3.7 0 .4.8-.3.8 0 3.5.7 5.8.7 2.4 1.4 6.3 1.5 8.6.1 2.4.5 5.5.9 7 .4 1.6.9 4.5 1.1 6.5.2 2 1 5.3 1.8 7.3.8 1.9 1.1 3.5.7 3.5-.5 0-.8 2.4-.6 5.3.2 3.3.8 5.1 1.5 4.9.6-.1.9.2.6.7-.3.5-2.6.8-5 .6-2.8-.1-4.7.2-5 1-.3.9 1.4 1.1 6.9.7 6.5-.4 7.6-.2 9.6 1.7 1.6 1.5 2.3 3.3 2.4 6 0 2.2.3 3.7.7 3.5.4-.3.7.4.7 1.3 0 1 .7 4.3 1.5 7.3.9 3 1.6 7 1.6 9 0 1.9.4 5 .9 6.7.5 1.8 1.2 6.7 1.6 11 .6 7.7.5 7.9-2.4 11.1-1.6 1.7-3.9 3.2-4.9 3.2-1.1 0-3 1.5-4.3 3.4-1.3 1.9-2.6 3.3-2.9 3.1-1.1-.7-15.2 14.4-14.5 15.5.3.6.3 1-.2.9-2-.3-3.3.2-3.3 1.3 0 .7-1.6 3.1-3.6 5.3-2 2.3-3.2 3.1-2.8 2 .6-1.8.4-1.7-2 .5-2.3 2.1-2.9 2.2-3.6 1-.7-1-1-1.1-1-.3 0 .7-.8 1.3-1.7 1.3-1.4 0-1.5-.2-.5-.9.8-.5 1.4-1.9 1.4-3.2-.2-9.1-.4-10.9-1.8-11.7-1.2-.7-1.3-1.4-.4-3.6.7-2 .6-3.4-.4-5.5-1.5-2.8-1.5-4.2-.1-7.5.4-1 .4-2.1-.1-2.5-1.3-.9-3.3-6.9-2.6-7.6.9-.9 1-4.5.1-3.9-1 .6-2.9-2.8-2.9-5.1 0-.9.5-1.3 1-1 .6.3 1-.3 1-1.5s-.4-1.8-1-1.5c-.6.4-.8-.6-.6-2.5.3-2.6-.1-3.3-2.5-4.6-1.6-.8-2.9-2-2.9-2.6 0-.6.3-.9.6-.5 1.1 1 3.4-2 3.4-4.5 0-1.3.4-1.9.8-1.3.8 1.2 3.2 1.8 3.2.9 0-.4-.8-1.3-1.7-2.1-1-.8-1.2-1.2-.5-.8 2.6 1.3 1-1.2-1.9-2.9-2.3-1.3-3.4-1.5-4.2-.7-.6.6-1.6 1.1-2.2 1.1-.5 0-.3-.5.5-1 1.2-.8.9-1-1.2-1-2 0-2.6.4-2.2 1.5.4.8.9 1.5 1.3 1.6 2.3.3 4.2.8 5.8 1.8 1.5.9 1.3 1-1.2.5-1.6-.3-3.7-.8-4.5-1.1-.8-.3-2.6-.6-4-.5-1.6 0-1.9-.1-.7-.4 2-.6 2.2-2 .5-3-.7-.5-.8-.3-.3.6.5.8.4 1.1-.3.6-2.1-1.3-.1-3.6 2.7-3.1 1.4.3 2 .2 1.2-.1-.9-.5-.3-1.1 2-2.2 1.9-.8 3.7-1.4 4.2-1.4.4.1.7-.2.7-.7 0-.5 2-1.4 4.5-2 4.4-1.1 5.6-2.3 3.5-3.6-.5-.3-1-.1-1 .5s-.4.9-.8.6c-.4-.2-1.4-.1-2.2.4-.9.5-1.9.5-2.7-.2-.9-.7-1.3-.7-1.3.1 0 .6-1.1.1-2.4-1-1.9-1.7-2.5-3.1-2.4-6.3.1-3.6.2-3.8 1.1-1.9 1.2 2.6 2.7 3 2.7.7 0-.8-.4-1.2-1-.9-.5.3-1-.1-1-.9s-.7-2.1-1.5-2.9c-.8-.8-1.7-3.1-1.9-5.1-.2-1.9-.7-4-1.1-4.6-.3-.5-.2-1 .3-1 .6 0 .6-1.4 0-3.8-.5-2-.9-4.7-.9-6 .1-2.3-2.2-5.6-3.2-4.6-.2.3-.7-.4-1-1.5-.4-1.5 0-1.9 1.4-1.6 1.1.2 1.9 0 1.9-.6v-1.7c0-.4-.6-.7-1.2-.7-.7 0-1.2-.8-1-1.8.2-1-.3-1.7-1.2-1.7-1.2 0-1.3-.5-.4-3.2.9-2.6.8-3.3-.6-4.4-1.7-1.2-1.7-1.3.3-2.6 2.5-1.5 2.7-2.8.6-2.8-.8 0-1.4-.3-1.3-.8 0-.4-.2-1.5-.7-2.5-.4-.9-.3-2.3.3-3 .5-.6.9-2.9.8-5-.1-2.7-.9-4.4-3-6.2-2.4-2.1-2.6-2.6-1.2-3.1 1.7-.7 2.3-5.4.6-5.4-.5 0-1-.6-1-1.3 0-.7-.9-1.8-2-2.5s-2-1.9-2-2.7c0-2.1 3-3.1 4.1-1.4.6 1 .9.3.9-2.1 0-2.7-.3-3.2-1.1-2-.8 1.2-.9 1.1-.6-.5.2-1.1.9-1.9 1.6-1.7.9.2 1.1-.3.8-1.3-.4-.8-.1-1.5.6-1.5.7-.1.6-.6-.5-1.3-1.4-1.1-1.5-2.1-.6-6.6.5-2.9.8-6.5.5-7.9l-.3-2.7-1.7 3.5c-.9 1.9-1.6 3.1-1.7 2.5 0-.5-.5-.4-1.2.3-.8.8-1.4.5-2.4-1.3-1.1-2.2-1-2.8 1.6-5.3 2.1-2.1 3.3-2.6 4.4-2 1.4.8 1.6.3 1.5-3.6-.1-2.5-.5-4.5-.8-4.4-1.8.2-3.1-.3-3.1-1.1 0-.5.8-.7 1.9-.4 2.2.6 3.7-1.3 2.3-3-.6-.7-.8-3.9-.5-7.2.7-8.9.6-14.7-.4-15.4-.4-.3-.8-2.1-.8-3.8 0-2.8.3-3.2 2-2.7 1.6.4 1.7.3.5-.5-1.6-1.1-1.8-9-.5-17.2.5-3.6.3-4.9-.9-6.2-1.7-1.6-2.2-3.2-.8-2.3 1 .6 1-5.3 0-6.9-.3-.6-.4-2.2-.2-3.7.2-2-.5-3.3-2.3-4.8-1.9-1.5-2.2-2-.9-2 .9 0 2.8.7 4.1 1.6zM31 58.4c0 .2-.7.7-1.6 1-.8.3-1.2.2-.9-.4.6-1 2.5-1.4 2.5-.6zm64.4 2.2c.3.8.2 1.2-.4.9-.6-.3-1-1-1-1.6 0-1.4.7-1.1 1.4.7zm43.3-1c-.3.3-1.2.4-1.9.1-.8-.3-.5-.6.6-.6 1.1-.1 1.7.2 1.3.5zm103.1 10.5c1 1.6.9 1.9-.5 1.9-1.5 0-1.6.2-.3 1 .8.5 1 1 .4 1s-1.7-.7-2.4-1.5-2.1-1.5-3.1-1.5c-1.1 0-1.9-.4-1.9-1 0-.5.8-.6 1.8-.3 1.4.6 1.5.4.5-.8-1.1-1.3-.8-1.5 1.5-1.1 1.6.2 3.4 1.2 4 2.3zM150 75.5c0 1.5-8.8 10.4-10.2 10.5-.5 0-.8-.7-.8-1.5s-.4-1.5-.9-1.5-.9-1.4-.9-3c.1-2.2.6-3 2-3 1 0 1.8-.4 1.8-.8 0-.5 1.4-.9 3.1-1 1.7 0 3.4-.3 3.7-.6 1-1.1 2.2-.6 2.2.9zM290.5 77c.3.4-.7.7-2 .7-1.4 0-2.5-.5-2.5-1.2 0-1.4 3.6-.9 4.5.5zm-155.4 2.3c-.6.8-.7 1.7-.2 2.3 1.3 1.4 2.2 6.7 1.3 8-1 1.5-9.1 3.4-9.8 2.3-.3-.5 0-.9.5-.9.6 0 1.1-.5 1.1-1 0-.6-1-1-2.2-1-1.4 0-1.8-.3-1.2-.8 1.8-1.1 1.4-6.2-.4-6.2-4.1 0 5.4-3.7 10.2-3.9 1.4-.1 1.6.2.7 1.2zm155.9.3c0 .2-.7.4-1.5.4s-1.5-.4-1.5-1c0-.5.7-.7 1.5-.4.8.4 1.5.8 1.5 1zm-251.8 3c-.7 1.2-1.1 1.3-1.7.4-.4-.7-.2-1.6.6-2.1 1.8-1.1 2.3-.4 1.1 1.7zm262.2 2c.3.8.2 1.2-.4.9-.6-.3-1-1-1-1.6 0-1.4.7-1.1 1.4.7zm-40.5 6.1c1-.3 10.5 4.7 11.4 6 .4.7 1.6 1.3 2.6 1.3s3 1.1 4.4 2.4l2.6 2.4.4-3.6.4-3.7.2 4c.2 4.5 1.4 6.4 5.4 8.4 1.5.8 2.7 1.9 2.7 2.4s-.7.4-1.5-.3c-.9-.7-1.8-1.1-2-.8-.8.8 5.3 18.2 6.7 19.3.8.5 2 3 2.7 5.5.7 2.5 1.4 5.2 1.7 6.1.4 1.3-.4 1.7-4 1.7-2.8.1-4.9-.4-5.7-1.4-1-1.2-.9-1.3.7-.8 1.6.6 1.5.3-.5-1.9-1.4-1.5-3.3-2.7-4.3-2.7s-1.8-.4-1.8-.8c0-.5-1.4-.9-3-1-1.7 0-4.5-.8-6.2-1.6-1.7-.9-3.9-1.4-4.9-1.1-.9.3-2 .1-2.4-.5-.4-.6-1.5-.8-2.5-.5-2.4.8-4.5-4.1-3.1-7.7.7-1.9.6-2.9-.4-3.9-.8-.8-1.6-3.6-1.8-6.2-.3-2.7-1-5.4-1.6-6-1.4-1.4-1.4-3 0-2.1.8.4.9-.1.4-1.7-.7-2.3-5.1-6.8-6.7-6.9-2-.1-.5-1.7 2.6-2.8 1.8-.7 3.4-1.8 3.3-2.5-.1-4.6.4-5.1 1.9-2 .9 1.8 1.9 3.1 2.3 3zm-144.1-.2c-.3.3-.9-.2-1.2-1.2-.6-1.4-.5-1.5.5-.6.7.7 1 1.5.7 1.8zm-69.4.1c2.3.9 2 2.3-.4 1.7-1.1-.3-2-.9-2-1.4 0-1.1.3-1.1 2.4-.3zm78.6 10.6c0 .5-.4.8-1 .8-.5 0-1-1-1-2.3 0-1.8.2-1.9 1-.7.5.8 1 1.8 1 2.2zm.1 6.9c-.6 1.6-1 1.8-1 .7-.1-2.2 1.2-5.5 1.6-4.2.2.6-.1 2.2-.6 3.5zM50.3 113c.3 1.1.1 2-.4 2s-.9-.7-.9-1.6c0-1-.6-1.4-1.5-1-.8.3-1.5.1-1.5-.4 0-1.9 3.8-1 4.3 1zm250.2 4c.3.5.1 1-.4 1-.6 0-1.1-.5-1.1-1 0-.6.2-1 .4-1 .3 0 .8.4 1.1 1zm7.3 27.4c.4 3.5-1.4 2.6-2-.9-.4-1.6-.1-2.4.6-2.2.6.2 1.2 1.6 1.4 3.1zm9.2-1.2c0 .6-.7.7-1.6.4-.9-.3-2-.6-2.5-.6s-.9-.4-.9-.9c0-.4 1.1-.6 2.5-.3 1.4.2 2.5.9 2.5 1.4zm-28 2.8c0 .5-.5 1-1.1 1-.5 0-.7.4-.4 1 .4.6-1 .9-3.7.9-3.4-.2-3.7-.3-1.3-.6l3-.5-3-1.3-3-1.3 4.8-.1c2.6-.1 4.7.3 4.7.9zm23.9 2.2c-.7 1.3-1.4 1.8-1.6 1.1-.3-.7.2-1.9.9-2.7 1.8-2 2.2-1.2.7 1.6zm5.9 1.5c-1.3 1.6-1.5 1.6-2.1-.1-.4-1 0-1.4 1.3-1.3 1.4.1 1.6.4.8 1.4zm2.2 1.7c0 .3-.4.8-1 1.1-.5.3-1 .1-1-.4 0-.6.5-1.1 1-1.1.6 0 1 .2 1 .4zm-65.4 3.3c-1 1-1.9-.5-1-1.8.6-1.1.8-1.1 1.2 0 .2.7.1 1.5-.2 1.8zm69.9-.7c1.6.7 1.4.8-1.2.7-1.7-.1-2.9-.5-2.6-1 .5-.9 1.2-.8 3.8.3zm-121 7.8l-2 .5 2 .9c1.4.6.8.7-2.2.4-3.1-.3-4.3 0-4.3.9 0 .7-1.5 1.5-3.3 1.7-2.6.3-3.3 0-3.4-1.4-.2-2 5.2-3.4 8.7-2.3 1.5.5 2 .4 1.6-.4-.5-.7.3-1.1 2.1-1 2.1.1 2.3.3.8.7zm-148.4 8.5c-1 .9-1.1.8-.5-.6.3-1 .9-1.5 1.2-1.2.3.3 0 1.1-.7 1.8zm181.3 1.7c1.4.5 2.6 1.6 2.6 2.4 0 .9.6 1.3 1.4 1 .8-.3 2.2 1.4 4 4.9 1.4 3 2.6 5.9 2.6 6.5 0 .7.6 1.1 1.3.9.7-.1 1.1.6.9 1.8-.2 1.6-.1 1.7.7.5.9-1.3 1.3-1.2 3.1.7 1.1 1.2 2 2.9 2 3.7 0 1.5 5 5.6 6.7 5.6 1.2 0 3.2 4 3.1 6.2-.1 1.9-.6 2.1-5.5 1.8-2.8-.1-3.7.5-7 5.1-2.7 3.8-3.9 4.8-4.1 3.6-.2-.9-.8-1.5-1.3-1.1-.6.3-1.6.1-2.4-.6-.8-.7-2.7-.9-4.8-.5-2.6.5-3.6.3-4-.9-.4-.9-1.6-1.6-2.8-1.6-1.4 0-1.9-.5-1.6-1.4.5-1.2 0-1.2-2.6-.5-4.1 1.2-5.7 1.1-5.7-.1 0-.6 1.2-1 2.8-1.1 2.4 0 2.4-.1.7-.9-1.8-.7-1.6-.8 1-1.1 2.2-.3 2.9-.9 2.7-2.2-.2-.9.2-1.7.9-1.7.8 0 .8-.4-.1-1.5-1-1.2-1-1.5.3-1.5 1.8 0 2.9-6.6 1.5-9.2-.4-1-1.3-4.1-1.8-6.9-.8-4.2-.7-5.7.5-7.5.8-1.3 1.5-3 1.5-3.9 0-1.8.1-1.8 3.4-.5zM77 186c0 .5-.4 1-1 1-.5 0-1-.5-1-1 0-.6.5-1 1-1 .6 0 1 .4 1 1zm93.7 8.2c-.3.7-.5.2-.5-1.2s.2-1.9.5-1.3c.2.7.2 1.9 0 2.5zm-95.7.2c0 .2-.7.6-1.5 1-.8.3-1.5.1-1.5-.4 0-.6.7-1 1.5-1s1.5.2 1.5.4zm12.1 6c1.4 1.5 1.1 2.6-.6 2-.9-.4-1.5-1.8-1.4-3.8.1-2.1.3-2.4.6-1.1.3 1.1.9 2.4 1.4 2.9zm87.3-.5c-.6.6-2.4-1.9-2.4-3.4.1-.6.7-.1 1.5.9.8 1.1 1.2 2.2.9 2.5zm4.6 4.6c2.3 1.9 4.6 3.5 5.2 3.5.5 0 .6.5.2 1.2-.5.8.4.9 3.2.5 2.1-.3 4.8-.1 5.9.3 1.4.6 1.6.9.5 1.1-1.9.2 6.5 1.7 10.3 1.8 1.7.1 2.7-.4 2.7-1.4 0-1.2.4-1.3 2.5-.3 3.1 1.4 3.1 2.3.3 6.4-1.8 2.7-3 3.4-6.3 3.6l-4 .3-1 6.8c-1 6.5-1.1 6.7-2.7 4.8-.9-1.1-2-3.6-2.4-5.5-.3-2-1-3.6-1.6-3.6-.5 0-.6.4-.3 1 .3.5 0 2-.7 3.2-1.2 2.2-1.4 3.4-2 9.2-.4 3.8-1.5 4-2.6.7-1-2.8-2.1-3.6-4.4-3.2-.4 0-.5-.6-.2-1.4.4-.8 1-1.2 1.5-1 .4.3.1-1.5-.9-4-1-2.7-2.1-4.4-2.9-4.1-.7.3-1-.1-.7-.9.3-.8-.6-4.4-2.1-8-1.4-3.6-2.3-7.4-2-8.5.3-1 .1-2.1-.5-2.5-1.2-.8-1.3-3.5-.1-3.5.5 0 2.8 1.6 5.1 3.5zM60.3 204c-.3 1.2-.8 1.9-1.1 1.6-.5-.6.5-3.6 1.2-3.6.2 0 .2.9-.1 2zm91 1c.3 1.1.1 2-.4 2s-.9-.4-.9-.9-.3-1.7-.7-2.7c-.4-1.1-.3-1.5.4-1.1.6.4 1.3 1.6 1.6 2.7zm-75.5 5c-.2.7-1-.1-1.7-1.6-1.2-2.7-1.1-2.8.4-1.2 1 .9 1.6 2.1 1.3 2.8zm77.2 1.3c0 .5-.4.5-1 .2-.5-.3-1-1.4-1-2.3 0-1.5.2-1.5 1-.2.5.8 1 1.9 1 2.3zm120.4 1.2c-1.5 2.3-1.9 2.4-3.2 1.2-1.6-1.7-.7-4.1 1.3-3.3.7.2 1.6-.3 2-1.2.5-1.1.9-1.3 1.2-.5.2.6-.3 2.4-1.3 3.8zm-9 2.1c.3.8.2 1.2-.4.9-.6-.3-1-1-1-1.6 0-1.4.7-1.1 1.4.7zM63 215c0 .5-.2 1-.4 1-.3 0-.8-.5-1.1-1-.3-.6-.1-1 .4-1 .6 0 1.1.4 1.1 1zm93 1.5c0 .8-.2 1.5-.4 1.5s-.6-.7-1-1.5c-.3-.8-.1-1.5.4-1.5.6 0 1 .7 1 1.5zm12.6 4.3c1.5 1 1.4 4.4-.3 6-2.2 2.2-1.5 3.2 1.4 1.7 3.1-1.6 4.1-1.2 2.4.9-.7.8-1 2-.7 2.5 1 1.5-3.2 3.4-6 2.7-1.4-.4-3-2-4-4.4-1-2-2.4-4.5-3.2-5.5-.8-.9-1.2-2-.9-2.3.3-.4 1.6 1 2.8 3 2.5 4.2 4.3 4.2 4.7 0 .5-5.3 1.3-6.3 3.8-4.6zm102.4 2.4c0 .9.3.8 1-.2.8-1.3 1.1-1.3 2.5.1 2.5 2.5.9 4.9-3.4 4.9-2 0-5.3.3-7.4.7-3.7.6-3.9.5-3.5-1.8.2-1.9 1.1-2.5 4.1-3 2-.3 4-.9 4.4-1.2 1-1.1 2.3-.8 2.3.5zm-67.9 8.1c-.8.8-1.1.5-1.1-.9 0-2.7 1.4-4.1 1.8-1.9.2.9-.1 2.2-.7 2.8zm62.9 3.9c0 1.3-1 2-3 2.4-1.6.4-3 1-3 1.4 0 .9-4.3 2.8-8 3.6-8.1 1.7-9.3 1.7-10.5 0-1.1-1.4-1.3-1.5-1.9-.1-.6 1.7-4.6 2.1-4.6.4 0-.6-.9-.9-2-.6-1.1.3-2.3.1-2.6-.4-.3-.5.4-.9 1.5-.9 1.2 0 2.1-.4 2.1-.9s3.3-1.2 7.3-1.6c6.4-.6 10.1-1.4 19.7-4.4 3.9-1.1 5-.9 5 1.1zm-188 5.3c0 .8-.4 1.5-1 1.5-.5 0-1-.7-1-1.5s.5-1.5 1-1.5c.6 0 1 .7 1 1.5zm9.3 37.9c.4 1 .1 1.3-.9.9-.7-.3-1.4-.9-1.4-1.4 0-1.4 1.7-1 2.3.5zM22 283c0 .5-.4 1-1 1-.5 0-1-.5-1-1 0-.6.5-1 1-1 .6 0 1 .4 1 1zm83.3 2c.3 1.1.1 2-.4 2s-.9-.6-.9-1.3c0-.8-.4-.7-1 .3-.5.8-1 1.2-1 .8 0-.3-.3-1.3-.6-2.2-.4-1.1 0-1.6 1.4-1.6 1.1 0 2.2.8 2.5 2zM23 286c0 .5-.5 1-1.1 1-.5 0-.7-.5-.4-1 .3-.6.8-1 1.1-1 .2 0 .4.4.4 1zm84.6 4c.9 0 1.4 1 1.4 2.7-.1 2.6-.1 2.7-1.5.9-.8-1-2-1.6-2.8-1.3-1.2.4-1.2.1-.3-1.8.6-1.4 1.3-2 1.4-1.5.2.6 1 1 1.8 1zm8.4 2c1.8 1.2.2 1.2-2.5 0-1.3-.6-1.5-.9-.5-.9.8 0 2.2.4 3 .9zm-6.2 7.9c-1.5.5-1.9-.4-1.1-2.4.6-1.8.7-1.8 1.3.1.4 1 .3 2.1-.2 2.3zm198.9 33.7c-.3.3-1.2.4-1.9.1-.8-.3-.5-.6.6-.6 1.1-.1 1.7.2 1.3.5zm-2.7 2.9c1.7 2-.9 2.1-3.6 0-1.9-1.4-1.9-1.4.2-1.5 1.2 0 2.7.7 3.4 1.5zm-182 3.2c0 1.1-.3 1.4-.8.7-.4-.6-1.4-1.4-2.2-1.7-1-.4-.8-.6.8-.6 1.5-.1 2.2.5 2.2 1.6zm.4 3.9c.9 2.4.7 3.1-.5 1.4-.8-1.1-1.2-1.2-1.6-.2-.2.6-.9 1-1.4.7-.5-.4-.3-1.2.4-2 1.6-1.9 2.4-1.8 3.1.1zm168.9 1.5c2.4 2.7 1.6 3.5-.8.9-1.9-2.1-6.2-2.9-4.9-.8.4.7.3.8-.5.4-.6-.4-.9-1.2-.6-1.7 1.1-1.6 5-1 6.8 1.2zm56.7-.1c0 .5-.2 1-.4 1-.3 0-.8-.5-1.1-1-.3-.6-.1-1 .4-1 .6 0 1.1.4 1.1 1zm-63.2 3.5c-.3.3-.9-.2-1.2-1.2-.6-1.4-.5-1.5.5-.6.7.7 1 1.5.7 1.8zm64.2-.5c0 .5-.4 1-1 1-.5 0-1-.5-1-1 0-.6.5-1 1-1 .6 0 1 .4 1 1zm-57.6 5.1c-2.2 2.5-5.6 2.4-8.5-.2l-2.4-2.1 2.7 1.6c3.8 2.2 5.5 2 7.5-1 1-1.5 1.9-2.2 2.1-1.5.2.7-.4 2.1-1.4 3.2zm58.6.9c0 .5-.2 1-.4 1-.3 0-.8-.5-1.1-1-.3-.6-.1-1 .4-1 .6 0 1.1.4 1.1 1zm1 3c0 .5-.4 1-1 1-.5 0-1-.5-1-1 0-.6.5-1 1-1 .6 0 1 .4 1 1zm0 3c0 .5-.5 1-1.1 1-.5 0-.7-.5-.4-1 .3-.6.8-1 1.1-1 .2 0 .4.4.4 1zm-49 9.5c0 .8-.4 1.5-1 1.5-.5 0-1-.7-1-1.5s.5-1.5 1-1.5c.6 0 1 .7 1 1.5zm1.5 2.5c.3.6-.4 1-1.7 1-1.8 0-2-.2-.8-1 1.9-1.2 1.8-1.2 2.5 0zm1.2 3.6c-.3.3-1.2.4-1.9.1-.8-.3-.5-.6.6-.6 1.1-.1 1.7.2 1.3.5zm1.8 9.4c-.3.5-1.2 1-1.8 1-.7 0-.6-.4.3-1 1.9-1.2 2.3-1.2 1.5 0zm55.5 10c0 .5-.5 1-1.1 1-.5 0-.7-.5-.4-1 .3-.6.8-1 1.1-1 .2 0 .4.4.4 1zm-52.3 2.6c-.3.3-1.2.4-1.9.1-.8-.3-.5-.6.6-.6 1.1-.1 1.7.2 1.3.5z"/><path d="M126 60c0 .5.5 1 1 1 .6 0 1-.5 1-1 0-.6-.4-1-1-1-.5 0-1 .4-1 1zM135.6 70.1c-.8 4.2 0 5 .9.9.4-1.7.5-3.4.2-3.6-.2-.3-.7 1-1.1 2.7zM128.5 72.5c-2.5 1.2-2.6 1.4-.5.9 2.8-.7 6-2.3 4.5-2.3-.5 0-2.3.6-4 1.4zM157.7 46.4c-.3.8.2 1.6 1.3 1.9 2.5.6 3.2-.2 1.5-1.9-1.7-1.8-2.2-1.7-2.8 0zM149 47.9c0 1.3 2.5 2 3.9 1.1 1-.5.8-.9-.4-1.4-2.3-.8-3.5-.8-3.5.3zM144 50c0 .5.5 1 1.1 1 .5 0 .7-.5.4-1-.3-.6-.8-1-1.1-1-.2 0-.4.4-.4 1zM140.5 51c-.3.5-.2 1 .4 1 .5 0 1.3-.5 1.6-1 .3-.6.2-1-.4-1-.5 0-1.3.4-1.6 1zM151.7 61.5c-.4.8-.1 1.7.6 2.1.7.4.9.4.5-.1-.4-.4-.3-1.4.3-2.2.7-.8.8-1.3.1-1.3-.5 0-1.2.7-1.5 1.5zM145.8 63.7c.7.3 1.6.2 1.9-.1.4-.3-.2-.6-1.3-.5-1.1 0-1.4.3-.6.6zM103 84.5c0 .8.5 1.5 1 1.5.6 0 1-.7 1-1.5s-.4-1.5-1-1.5c-.5 0-1 .7-1 1.5zM100.5 91c-.3.5-.1 1 .4 1 .6 0 1.1-.5 1.1-1 0-.6-.2-1-.4-1-.3 0-.8.4-1.1 1zM125.4 119.4c.5 2.9 1.6 4.9 1.6 2.8 0-.7.7-1.2 1.6-1.2.8 0 1.2-.5.9-1.1-.4-.6-.9-.8-1.3-.5-.3.3-1.1-.2-1.9-1.2-1.2-1.5-1.3-1.4-.9 1.2zM109.8 118.7c.7.3 1.6.2 1.9-.1.4-.3-.2-.6-1.3-.5-1.1 0-1.4.3-.6.6zM110.8 155.6c-1.2 1.8 1.3 13.1 2.8 13.1 1.5 0 1.4-2.2-.4-5.3-.6-1.2-.8-2.4-.5-2.8.4-.4.8-1.9 1-3.4.2-2.3.1-2.4-.6-.7l-.8 2-.4-2c-.3-1.2-.7-1.6-1.1-.9zM126.5 165.5c.7 5.2 2.4 9.5 2.5 6.5 0-1.3.2-1.3 1.1 0 .9 1.2.9 1.1.4-.5-.4-1.1-.8-3.1-.8-4.5-.1-1.4-1-3.4-2-4.5-1.9-2-1.9-2-1.2 3zM120 169.8c0 1.5 2.8 2.3 3.6.9.4-.7.4-.9-.1-.5-.4.4-1.4.3-2.2-.3-.8-.7-1.3-.8-1.3-.1zM97.1 172.5c.1 1.9 1.8 5.1 1.8 3.5 0-.8-.4-2.2-.9-3-.5-.8-.9-1.1-.9-.5zM103 197.9c0 .6.5 1.3 1 1.6.6.3 1-.1 1-.9 0-.9-.4-1.6-1-1.6-.5 0-1 .4-1 .9zM125 202.5c0 1.6 1.6 2 2.4.6.3-.5-.1-1.1-.9-1.5-.9-.3-1.5 0-1.5.9zM125 206c0 .5.5 1 1.1 1 .5 0 .7-.5.4-1-.3-.6-.8-1-1.1-1-.2 0-.4.4-.4 1zM105.6 216.3c.3 1 .9 1.5 1.2 1.2.3-.3 0-1.1-.7-1.8-1-.9-1.1-.8-.5.6zM128.1 219.6c0 1.1.3 1.4.6.6.3-.7.2-1.6-.1-1.9-.3-.4-.6.2-.5 1.3zM133.2 253c0 1.4.2 1.9.5 1.2.2-.6.2-1.8 0-2.5-.3-.6-.5-.1-.5 1.3zM133.2 257.9c.3 1.4 4.5 6.1 5.5 6.1.3 0 .3-.7 0-1.5-.5-1 .4-1.6 2.8-2.1 1.9-.3 3.5-1 3.5-1.4 0-.4-1.8-.2-4 .3-3.4.9-4.2.8-6-.8-1.4-1.2-2-1.4-1.8-.6zM131.3 261.7c-1.9.7-1.5 2.2.5 1.8.9-.2 2.3-.4 3-.4.7-.1 1-.6.7-1.1-.7-1.1-2.2-1.2-4.2-.3zM126 264c-.8.5-1 1-.5 1 .6 0 1.7-.5 2.5-1s1.1-1 .5-1c-.5 0-1.7.5-2.5 1zM140.6 263.8c.5.4 1.8 1.8 2.7 3.2 1.6 2.2 1.7 2.3 1.7.4 0-2.4-1.8-4.4-3.9-4.4-1 0-1.2.3-.5.8zM130 268.4c0 .2.8 1 1.8 1.7 1.5 1.3 1.6 1.2.3-.4s-2.1-2.1-2.1-1.3zM146.2 269.2c.2.6 1 1.4 1.6 1.6.7.2 1-.2.6-1.2-.7-1.8-2.8-2.2-2.2-.4zM117.6 270.5c-.3.8-.3 1.5 0 1.5s1.2-.7 2-1.5c1.3-1.3 1.3-1.5.1-1.5-.8 0-1.7.7-2.1 1.5zM121.3 272.8c-.1 1 .5 1.9 1.2 1.9 1 0 1.1-.5.4-1.9-.5-1-1.1-1.8-1.2-1.8-.2 0-.3.8-.4 1.8zM146 273.6c0 .8.5 1.2 1 .9.6-.3 1-1 1-1.6 0-.5-.4-.9-1-.9-.5 0-1 .7-1 1.6zM147.7 275.7c-.4.3-.7 1.1-.7 1.7 0 .6.5.5 1.2-.2.6-.6.9-1.4.7-1.7-.3-.3-.9-.2-1.2.2zM125.5 279c-.3.5-.1 1 .4 1 .6 0 1.1-.5 1.1-1 0-.6-.2-1-.4-1-.3 0-.8.4-1.1 1zM144.5 279c.3.5.8 1 1.1 1 .2 0 .4-.5.4-1 0-.6-.5-1-1.1-1-.5 0-.7.4-.4 1zM125 282.7c0 .5.5 1.5 1 2.3.8 1.2 1 1.1 1-.8 0-1.2-.4-2.2-1-2.2-.5 0-1 .3-1 .7zM146 283.4c0 .2.7.7 1.6 1 .8.3 1.2.2.9-.4-.6-1-2.5-1.4-2.5-.6zM143.4 285.4c-.5 1.2-.3 2.1.3 2.3.6.2.9 1.3.6 2.3-.7 2.7.5 7.2 1.7 6.5 1.3-.8 1.3-5.5 0-5.5-.5 0-1-.5-1-1.1 0-.5.4-.8.9-.5 1.2.8.8-1.3-.6-3.9-1.1-2-1.2-2-1.9-.1zM125.5 292c.3.5.8 1 1.1 1 .2 0 .4-.5.4-1 0-.6-.5-1-1.1-1-.5 0-.7.4-.4 1zM167 294.1c0 .5.5.7 1 .4.6-.3 1-.8 1-1.1 0-.2-.4-.4-1-.4-.5 0-1 .5-1 1.1zM123.1 297.6c0 1.1.3 1.4.6.6.3-.7.2-1.6-.1-1.9-.3-.4-.6.2-.5 1.3zM122 303c0 .5.5 1 1 1 .6 0 1-.5 1-1 0-.6-.4-1-1-1-.5 0-1 .4-1 1zM125.7 305.9c.3 1.2.9 2.1 1.4 2.1 1.4 0 1.1-1.6-.5-2.9-1.2-1-1.3-.8-.9.8zM132.8 88.7c.6.2 1.8.2 2.5 0 .6-.3.1-.5-1.3-.5-1.4 0-1.9.2-1.2.5zM256.5 93c.5.9.2 1-1.4.5-2.8-.8-2.7.7.2 2.4 1.2.7 1.9 1 1.5.6-.4-.5-.3-1.4.3-2.1.7-.8.6-1.4-.2-2-.8-.5-.9-.3-.4.6zM259.9 93.1c-.8.5-.9.9-.2.9.6 0 1.6 1.4 2.2 3.2 1 2.9 1.3 3.1 2.7 1.6 1.3-1.3 1.4-1.9.3-3.7-1.7-2.6-3.2-3.2-5-2zM192.8 164.7c.7.3 1.6.2 1.9-.1.4-.3-.2-.6-1.3-.5-1.1 0-1.4.3-.6.6zM188.8 211.7c.6.2 1.8.2 2.5 0 .6-.3.1-.5-1.3-.5-1.4 0-1.9.2-1.2.5zM188.8 214.7c.6.2 1.8.2 2.5 0 .6-.3.1-.5-1.3-.5-1.4 0-1.9.2-1.2.5zM203.8 215.7c.7.3 1.6.2 1.9-.1.4-.3-.2-.6-1.3-.5-1.1 0-1.4.3-.6.6zM197.5 1c.3.5.8 1 1.1 1 .2 0 .4-.5.4-1 0-.6-.5-1-1.1-1-.5 0-.7.4-.4 1zM190.3 6.7c1.2.3 1.6 1 1.2 2.4-.8 2.4 1.2 2.5 4.4 0 1.7-1.3 2-2 1.1-2.6-.7-.4-1.6-.2-2.1.6-.6 1.1-1.1 1.1-2.1.1-.6-.6-1.9-1.1-2.7-1.1-1.2.1-1.1.3.2.6zM0 11c0 .5.5 1 1.1 1 .5 0 .7-.5.4-1-.3-.6-.8-1-1.1-1-.2 0-.4.4-.4 1zM235.5 19c1 1.1 2 2 2.3 2 .3 0-.3-.9-1.3-2s-2-2-2.3-2c-.3 0 .3.9 1.3 2zM7.6 23.3c.3 1 .9 1.5 1.2 1.2.3-.3 0-1.1-.7-1.8-1-.9-1.1-.8-.5.6zM223.5 28.6c-6.1 3-7.9 4.7-3.4 3.1 1.9-.7 3.9-1.5 4.4-1.9.6-.3 3-.7 5.5-.9 5.4-.3 6.7-.8 4.9-2-2.3-1.5-6.2-.9-11.4 1.7zm8.8-.9c-.7.2-2.1.2-3 0-1-.3-.4-.5 1.2-.5 1.7 0 2.4.2 1.8.5zM10 30.9c0 .5.5 1.3 1 1.6.6.3 1 .2 1-.4 0-.5-.4-1.3-1-1.6-.5-.3-1-.2-1 .4zM1.6 32.5c.4.8.7 1.5.9 1.5.2 0 .5-.7.9-1.5.3-.9 0-1.5-.9-1.5s-1.2.6-.9 1.5zM199.1 34.9c-1.1.7-1.1.9 0 1.4 1 .4 1 .6.2.6-1.8.1-1.6 2.1.2 2.1.8 0 1.5-.7 1.5-1.5s.7-1.5 1.5-1.5 1.5-.5 1.5-1c0-1.2-3-1.3-4.9-.1zM1 40c-.9.6-1 1-.3 1 .6 0 1.5-.5 1.8-1 .8-1.2.4-1.2-1.5 0zM4.4 40.2c-.5.7-.7 2.1-.5 3.2.1 1-.2 2.2-.7 2.5-.6.3 0 1.1 1.4 1.8 2.1 1 2.3.9 1.4-.7-1.3-2.5-1.4-7.1 0-5 .5.8 1.1 1.2 1.4 1 .2-.3-.2-1.3-.9-2.3-1-1.4-1.5-1.5-2.1-.5z"/><path d="M6 45.1c0 .4.6 1.2 1.4 1.8 1.1.9 1.5.7 1.9-.8.3-1.5 0-1.9-1.4-1.8-1.1.1-1.9.4-1.9.8zM10.5 49c.3.5.8 1 1.1 1 .2 0 .4-.5.4-1 0-.6-.5-1-1.1-1-.5 0-.7.4-.4 1zM17.1 50.6c0 1.1.3 1.4.6.6.3-.7.2-1.6-.1-1.9-.3-.4-.6.2-.5 1.3zM4.2 50.5c.4.4.4 1.3-.1 1.9-1.3 1.6.9 4.1 4.2 5 2.2.5 2.8.4 2.4-.6-.2-.7-1.4-1.3-2.6-1.2-1.5 0-2.1-.5-2.1-2.2 0-1.3-.6-2.6-1.2-3-.7-.4-1-.4-.6.1zM15.5 59c.3.5 1.1 1 1.6 1 .6 0 .7-.5.4-1-.3-.6-1.1-1-1.6-1-.6 0-.7.4-.4 1zM251.7 59.4c-.4 1-.1 1.3.9.9 1.5-.6 1.9-2.3.5-2.3-.5 0-1.1.7-1.4 1.4zM4.6 64.5c-.3.8-.1 1.5.4 1.5 1.3 0 2.2-1.8 1.1-2.4-.5-.3-1.1.1-1.5.9zM240.5 64c-.3.5-.1 1 .4 1 .6 0 1.1-.5 1.1-1 0-.6-.2-1-.4-1-.3 0-.8.4-1.1 1zM243.5 64c.3.5.8 1 1.1 1 .2 0 .4-.5.4-1 0-.6-.5-1-1.1-1-.5 0-.7.4-.4 1zM14.7 72.7c-.3.5-.2 1.5.2 2.2.7 1 1 1 1.6.1.4-.6.3-1.6-.3-2.2-.5-.5-1.2-.6-1.5-.1zM5.7 79.7c-1 .9-.9 2.3.1 2.3.5 0 .9-.7.9-1.5 0-1.7-.1-1.8-1-.8zM22 81.9c0 .5.5 1.3 1 1.6.6.3 1 .2 1-.4 0-.5-.4-1.3-1-1.6-.5-.3-1-.2-1 .4zM15.1 87.6c0 1.1.3 1.4.6.6.3-.7.2-1.6-.1-1.9-.3-.4-.6.2-.5 1.3zM7 89c0 .6-.3.9-.7.7-.5-.3-.8.6-.8 1.9 0 1.3.7 2.6 1.5 2.9.8.4 1.1.3.8 0-.4-.4-.3-1.8.2-3.1.6-1.4.6-2.6 0-2.9-.6-.4-1-.1-1 .5zM2.1 91.6c0 1.1.3 1.4.6.6.3-.7.2-1.6-.1-1.9-.3-.4-.6.2-.5 1.3zM16 91.2c0 2.1 1.7 4.1 2.4 3 .3-.6.2-1.3-.4-1.7-.6-.4-.8-1.1-.5-1.6.4-.5.1-.9-.4-.9-.6 0-1.1.6-1.1 1.2zM26.8 91.2c.5.5 1.6.8 2.3.6.8-.3.3-.7-1-1.1-1.7-.4-2.1-.3-1.3.5zM19 96.1c0 .5.5.7 1 .4.6-.3 1-.8 1-1.1 0-.2-.4-.4-1-.4-.5 0-1 .5-1 1.1zM3.7 101c.3 1.1.7 2 .9 2 .2 0 .4-.9.4-2s-.4-2-.9-2-.7.9-.4 2zM303.3 101.2c.2.7-.3 1.8-1.1 2.4-2.3 1.7-.8 6.4 1.9 5.9 2.6-.5 3.8-1.5 1.8-1.5-.8 0-2-.4-2.8-.9-1.2-.8-1.2-1.2.3-2.6.9-1 2.5-1.5 3.5-1.2 1.4.3 1.7 0 1.4-1.4-.4-1.2-1.4-1.9-3-1.9-1.5 0-2.3.5-2 1.2zM7.1 103.6c0 1.1.3 1.4.6.6.3-.7.2-1.6-.1-1.9-.3-.4-.6.2-.5 1.3zM26 106.9c0 .6.4 1.3 1 1.6.6.3.7-.1.4-.9-.7-1.8-1.4-2.1-1.4-.7zM14.1 108.5c0 1.1.4 2.9.8 3.9.7 1.9.8 1.9 1.3-.2.3-1.1 0-2.9-.8-3.9-1.3-1.7-1.3-1.7-1.3.2zM2 111c0 .5.5 1 1 1 .6 0 1-.5 1-1 0-.6-.4-1-1-1-.5 0-1 .4-1 1zM305 111c0 .5.5 1 1 1 .6 0 1-.5 1-1 0-.6-.4-1-1-1-.5 0-1 .4-1 1zM24.5 113c.3.5.8 1 1.1 1 .2 0 .4-.5.4-1 0-.6-.5-1-1.1-1-.5 0-.7.4-.4 1zM29.1 116.6c0 1.1.3 1.4.6.6.3-.7.2-1.6-.1-1.9-.3-.4-.6.2-.5 1.3zM9 116.9c0 .6.5 1.3 1 1.6.6.3 1-.1 1-.9 0-.9-.4-1.6-1-1.6-.5 0-1 .4-1 .9zM12.1 118.6c0 1.1.3 1.4.6.6.3-.7.2-1.6-.1-1.9-.3-.4-.6.2-.5 1.3zM2.8 118.7c.7.3 1.6.2 1.9-.1.4-.3-.2-.6-1.3-.5-1.1 0-1.4.3-.6.6zM34.5 119.1c-.4.6-.5 1.2-.2 1.5.2.3.7-.2 1-1.1.7-1.7.1-2-.8-.4zM15.3 122.2c-1.8 2.3-1.9 13.3-.2 15.5.6.7.8 2.4.5 3.8-.7 2.8 1.5 7 4.7 8.6 1.4.8 1.8.8 1.3 0-.4-.6-.1-1.1.6-1.1 1 0 .9-.3-.2-1.1s-1.2-1.2-.2-1.6c.6-.2.9-1 .5-1.6-.4-.6 0-.8 1-.4 1.1.4 1.4.2 1.1-.7-.3-.7.2-1.6 1-1.9.9-.4 1.6-1.2 1.6-1.9 0-1.1-.2-1.1-.8 0-.7 1-1.2.8-2.4-.5-2.1-2.4-2.8-6.1-1.4-6.8.8-.3.8-.7-.1-1.1-.7-.3-1.3-1.5-1.2-2.7 0-2.1.1-2.1.9-.2.7 1.5.9 1.6.9.4.1-2.1-5.1-5.7-5.7-4-.2.6-.8.9-1.3.5-.5-.3-.5-1.3.1-2.5 1.2-2.1.8-2.5-.7-.7zM11 127.2c0 .9-.6 1.9-1.2 2.1-1 .4-1 .6 0 .6 1.4.1 2.8-2.6 1.8-3.6-.3-.4-.6.1-.6.9zM334.3 131.2c-1.2 2.1-1.2 3.7.1 3.2.6-.2 1.2-1.3 1.3-2.4.2-2.3-.2-2.5-1.4-.8zM340.8 147.7c.7.3 1.6.2 1.9-.1.4-.3-.2-.6-1.3-.5-1.1 0-1.4.3-.6.6zM40.2 150.2c.5 1.5 2.8 2.3 2.8 1 0-.5-.7-1.3-1.6-1.6-1-.4-1.4-.1-1.2.6zM2 151.4c0 .2.7.7 1.6 1 .8.3 1.2.2.9-.4-.6-1-2.5-1.4-2.5-.6zM24 152.5c0 .8.2 1.5.4 1.5s.6-.7 1-1.5c.3-.8.1-1.5-.4-1.5-.6 0-1 .7-1 1.5zM332 152.1c0 .5.5.7 1 .4.6-.3 1-.8 1-1.1 0-.2-.4-.4-1-.4-.5 0-1 .5-1 1.1zM0 155c0 .5.5 1 1.1 1 .5 0 .7-.5.4-1-.3-.6-.8-1-1.1-1-.2 0-.4.4-.4 1zM21 154.9c0 .6.4 1.3 1 1.6.6.3.7-.1.4-.9-.7-1.8-1.4-2.1-1.4-.7zM394 155c0 .5.7 1 1.5 1s1.5-.5 1.5-1c0-.6-.7-1-1.5-1s-1.5.4-1.5 1zM4.7 155.7c-.4.3-.7 1.3-.7 2.2.1 1.3.3 1.3 1.1-.2 1.1-1.9.8-3.3-.4-2zM51.6 157.5c-.3.8-.1 1.5.4 1.5.6 0 1-.7 1-1.5s-.2-1.5-.4-1.5-.6.7-1 1.5zM27 163.2c0 .4.4.8.9.8.6 0 1.2-.4 1.5-.8.3-.5-.1-.9-.9-.9s-1.5.4-1.5.9zM47 163.9c0 .6.4 1.3 1 1.6.6.3.7-.1.4-.9-.7-1.8-1.4-2.1-1.4-.7zM332 165.4c0 .2.7.7 1.6 1 .8.3 1.2.2.9-.4-.6-1-2.5-1.4-2.5-.6zM309.1 168.6c0 1.1.3 1.4.6.6.3-.7.2-1.6-.1-1.9-.3-.4-.6.2-.5 1.3zM332 167.8c0 .7.5 1.2 1 1.2.6 0 1 .5 1 1.1 0 .5-.4.7-1 .4-.5-.3-.7 0-.4.9.9 2.5 3.3 2.8 2.9.3-.5-2.4-3.5-5.8-3.5-3.9zM361.3 169.7c-1.9.7-1.6 2 .7 2.6 1.3.3 2 0 2-.8 0-1.7-1.1-2.4-2.7-1.8zM4.5 172c-.3.5-.1 1 .4 1 .6 0 1.1-.5 1.1-1 0-.6-.2-1-.4-1-.3 0-.8.4-1.1 1zM332.3 175.5c0 .8.4 1.2.9.9.5-.3.6-1 .3-1.5-.9-1.3-1.2-1.1-1.2.6zM346 175c0 .5.5 1 1 1 .6 0 1-.5 1-1 0-.6-.4-1-1-1-.5 0-1 .4-1 1zM391.6 175.5c-.9 2.3-.8 2.4 1.4 1.8 1.2-.3 1.9-1 1.7-1.6-.6-1.8-2.4-1.9-3.1-.2zM7.8 176.5c1 2.1 1.2 2.7 1.2 4.6 0 .5.5.7 1 .4 1.4-.9 1.2-1.7-1.1-4.5-1.4-1.8-1.7-1.9-1.1-.5zM335.5 176c.3.6.1 1-.4 1-.6 0-1.1.7-1.1 1.6 0 .8-.4 1.2-1 .9-.5-.3-1-.2-1 .3 0 .7 6.4 3.2 8.4 3.2 1.8 0 .2-3.1-1.9-3.6-2.7-.7-3.3-2-1.3-2.6.7-.3.5-.7-.6-1.1-1-.4-1.5-.3-1.1.3zM387.8 175.7c.7.3 1.6.2 1.9-.1.4-.3-.2-.6-1.3-.5-1.1 0-1.4.3-.6.6zM1.5 179c.3.5 1.1 1 1.6 1 .6 0 .7-.5.4-1-.3-.6-1.1-1-1.6-1-.6 0-.7.4-.4 1zM320.7 179.1c.7.7 1.5 1 1.8.7.3-.3-.2-.9-1.2-1.2-1.4-.6-1.5-.5-.6.5zM387.7 182.7c-.3 1.6-.2 3.2.3 3.7 1.2 1.2-.7 4.6-2.6 4.6-1.9 0-6.1 2.7-6.7 4.5-.7 1.7 7.3.8 8.8-1 .6-.7 3.2-1.8 5.9-2.4 4-1 5.1-1 5.7.1.6.9.9.4.9-1.5 0-2.3-.4-2.7-2.8-2.7-1.5 0-3.3.5-4 1.2-.9.9-1.2.9-1.2-.1 0-.8.8-2 1.8-2.7 1.5-1.3 1.5-1.4-.8-1.1-2.1.2-2.6-.3-2.8-2.6-.2-1.5-.7-2.7-1.1-2.7-.5 0-1.1 1.2-1.4 2.7zM393.6 182.5c.4.8 1 1.5 1.5 1.5s.9-.7.9-1.5-.7-1.5-1.5-1.5c-.9 0-1.2.6-.9 1.5zM24.3 184c-.1 1.1.2 2 .7 2 .4 0 .7-.7.6-1.5-.3-2.3-1.2-2.6-1.3-.5zM51.7 182.7c-.8.7 1.1 3.3 2.3 3.3.5 0 .6-.9.3-2-.5-2-1.5-2.5-2.6-1.3zM37 184c0 .5.5 1 1.1 1 .5 0 .7-.5.4-1-.3-.6-.8-1-1.1-1-.2 0-.4.4-.4 1zM334.4 184.4c.1.8.5 1.8.8 2.2.4.3.5-.1.4-1-.1-.8-.5-1.8-.8-2.2-.4-.3-.5.1-.4 1zM8 184.9c0 .6.4 1.1 1 1.1.5 0 .7.7.4 1.5-.4.8-.4 1.5-.1 1.5 1.3 0 1.4-3 .1-4-1-.9-1.4-.9-1.4-.1zM21.5 185c.3.5.8 1 1.1 1 .2 0 .4-.5.4-1 0-.6-.5-1-1.1-1-.5 0-.7.4-.4 1zM2 191.8c0 .6.9 1.2 2 1.5 1.1.3 2 .3 2 .1 0-.2-.9-.8-2-1.4-1.1-.6-2-.7-2-.2zM29.1 193.7c-.1 1.2.4 2.5.9 2.8 1.2.7 1.2-.2 0-3-.8-1.9-.9-1.9-.9.2zM350 193c0 .5.5 1 1 1 .6 0 1-.5 1-1 0-.6-.4-1-1-1-.5 0-1 .4-1 1zM369.2 193.2c-.7.7-2 1.3-2.9 1.3-2 0-2.6 1.5-1.3 3.5.9 1.3 1.4 1.1 3.5-1.3 3.1-3.5 3.6-6.4.7-3.5zM52 196.2c0 1.9-.2 2-1 .8-1.1-1.7-1.3-.1-.4 2.4 1 2.7 2.1 1.8 2.2-1.9.1-1.9-.1-3.5-.3-3.5-.3 0-.5 1-.5 2.2zM7.1 196.6c0 1.1.3 1.4.6.6.3-.7.2-1.6-.1-1.9-.3-.4-.6.2-.5 1.3zM46.1 196.6c0 1.1.3 1.4.6.6.3-.7.2-1.6-.1-1.9-.3-.4-.6.2-.5 1.3zM371 196.9c0 2.6 1.7 3.6 3.6 2.1 1.1-1 1.2-1.6.3-2.6-1.7-2-3.9-1.7-3.9.5zM346 197.3c0 .8.7 1.8 1.6 2.1 1.1.4 1.4.1 1.2-1.1-.4-2.1-2.8-3-2.8-1zM351 198c0 .5.6.7 1.4.4.8-.3 1.6.4 2 2 .8 3.1 2.6 3.5 2.6.6 0-1-.9-2.4-1.9-3-2.5-1.3-4.1-1.3-4.1 0zM15.1 199.6c0 1.1.3 1.4.6.6.3-.7.2-1.6-.1-1.9-.3-.4-.6.2-.5 1.3zM335 199c0 .7 2.4 2 3.6 2 1.3 0 .1-1.9-1.6-2.3-1.1-.3-2-.2-2 .3zM382.4 200.6c-.4 1.4-.2 3 .5 3.7.8.8 1.1.1 1.1-2.6 0-4.3-.7-4.8-1.6-1.1zM25.6 200.5c-.3.8-.1 1.7.3 2 .5.3 1.1-.2 1.5-1 .3-.8.1-1.7-.3-2-.5-.3-1.1.2-1.5 1zM386.5 200c-.8 1.3 2.5 1.3 4.5 0 1.2-.8.9-1-1.2-1-1.5 0-3 .4-3.3 1zM0 224.8c.1 13.9.3 25.2.6 25.2 1 0 4.9-2.3 5.5-3.3.9-1.3-.1-4.7-1.5-4.7-1.2 0-1.5-5.8-.3-7.8.5-.6.6-1.6.2-2.1-.3-.6.3-1.4 1.2-2 1.4-.8 1.5-1.3.5-1.9-1-.7-1-1.1.2-2.2.9-.7 1.3-1.7.9-2.3-.4-.6-1.2-.3-2.1.9-1.3 1.7-1.3 1.4-.8-3.1.4-3.7.1-5.3-1-6.6-1.5-1.6-1.4-1.7.5-1.2 1.2.3 2.1.1 2.1-.6 0-.6-.6-1.1-1.4-1.1-.9 0-1.5-1.7-1.8-5.1-.3-2.7-1-5.5-1.7-6.2-.8-.8-1.1 5.1-1.1 24.1zm3.4 2.8c.3.8.2 1.2-.4.9-.6-.3-1-1-1-1.6 0-1.4.7-1.1 1.4.7zM330.5 202c.3.5.8 1 1.1 1 .2 0 .4-.5.4-1 0-.6-.5-1-1.1-1-.5 0-.7.4-.4 1zM341.2 203.7c-.8 1.4-.9 2.4-.2 2.8 1.2.7 2.4-1.8 1.8-3.7-.3-.8-.9-.5-1.6.9z"/><path d="M369.6 203.4c.4 1 .1 1.6-.7 1.6-2.4.1-5.6 3-4.2 3.8 1.9 1.2.4 4.8-2.4 6.3-2.1 1.1-2.7 1.1-3 .1-.6-1.6-2.1-1.5-3.9.3-.9.8-2.7 1.5-4.2 1.5-1.9 0-2.3-.3-1.4-.9 1.6-1 1.3-4.2-.4-4.8-.7-.2-1.4.8-1.8 2.2-.4 1.4-1.4 2.5-2.4 2.6-1.4 0-1.4.2.3.8 1.9.8 1.9.8-.2 1.5-3.5 1.1-4.7-.2-2.9-3 2-3 2-4.8.1-4-.8.3-2.5-.5-3.9-1.9-3.1-3.1-4.3-3.2-4.2-.3.1 3.3-4.2 3.7-6.5.6-1.8-2.3-1.8-2.3-.9 1.7.7 3.4.7 3.7-.4 2.2-.7-.9-1.8-1.7-2.5-1.7-.8 0-.8.6-.2 1.7.5 1 1.2 2.6 1.5 3.6.3 1 1 1.5 1.6 1.2.5-.3 1-.1 1 .4 0 .6-1.4 1.1-3.2 1.1-2.5 0-2.9.3-2 1.2 1.9 1.9 1.4 2.8-1.3 2.6-1.8-.2-2.4-.7-2-1.8.5-1.1.3-1.2-.5-.4-1.5 1.5-.2 4.4 2.1 4.4 1 0 1.9.4 1.9 1 0 .5-.9 1-2 1s-2 .7-2 1.5c0 2.8-.1 3-3.1 4.8-3 2-3.7 3.3-1.8 3.9 1.4.5 0 3.8-1.7 3.8-2 0-1.7-1.8.4-2.3 1.6-.4 1.6-.5-.1-.6-2.3-.1-3.4 2.8-1.6 4 .8.5 2.4.7 3.7.4 1.2-.3 2.2-.1 2.2.4s-1.3 1.1-3 1.3c-1.6.3-3 .1-3-.4 0-.4-.5-.8-1.1-.8-.5 0-.7.5-.4 1 .4.6.2 1.7-.4 2.4-.9 1.1-.8 1.4.6 1.2 1.2-.1 1.9.7 2.1 2.4.2 2.2.1 2.3-.8.7-.6-.9-1.6-1.7-2.2-1.7-.7 0-.6.5.2 1.5 1 1.1 1 1.8.1 2.9-.9 1.1-.9 1.5.1 1.9 1 .4 1 .6.1.6-2.1.2-1.7 14.5.4 16.2 1.4 1.2 1.6 1.2.8 0-.6-1-.4-1.2.4-.7.7.5 1 1.1.7 1.4-.9.8 2.5 4.2 4.2 4.2.8 0 1.2.6.8 1.5-.6 1.5 1.4 1.7 2.5.1.4-.4.7.4.7 1.9 0 1.9-.3 2.3-.9 1.4-.7-1.1-.9-1.1-.9-.1 0 .7.7 1.5 1.5 1.8.8.4 1.5 1.1 1.5 1.8 0 .6.8 2 1.7 3.1 1.2 1.6 1.4 1.6 1 .3-.3-1-.1-2 .5-2.4.7-.4.8-.3.4.4-1.1 1.8 2.7 4.3 10.7 7.3 8.9 3.2 19.5 9 22.3 12.1 1.2 1.3 2.7 3.9 3.4 5.8.7 1.9 2.2 4.7 3.2 6.2 3 4.4 2.1 4.2-4.7-1.1-3.5-2.8-6.7-5.1-7.1-5.1-.3 0-2.3-1.3-4.3-2.9-7-5.6-23.3-16.3-23.8-15.7-.8.8 8.6 9.6 10.2 9.6.8 0 2.8 1.3 4.5 3 1.6 1.6 4.8 3.4 6.9 4.1 2.4.7 6.6 3.6 10.3 7 3.5 3.2 6.8 5.8 7.3 5.9 2.3.1 7.2 7.8 8.2 13 .2 1.4 1 3.2 1.8 4 .7.8 3.4 6.1 5.9 11.8 2.6 5.7 5.8 11.5 7.1 12.8 1.4 1.4 2.5 3.4 2.5 4.4 0 1.1.9 4.3 2 7.2 1.1 2.9 2 5.9 2 6.6 0 2.4 5.2 16.2 6.1 16.2.5 0 .9-11.6.9-25.9 0-21.8-.2-26.1-1.5-27.1-.8-.7-1.5-1.6-1.5-2.1s.7-.9 1.5-.9c2.4 0 2.1-16.7-.4-19.8-1.1-1.2-2.4-2.2-3-2.2-.6 0-1.1-.6-1.1-1.3 0-.9-.2-.9-.8 0-.7 1.2-6.4-2.2-21.6-12.7-3.2-2.2-6.1-3.9-6.3-3.6-.2.2 3.2 2.9 7.5 6 7.4 5.2 17 14.2 22.2 20.8 3.6 4.7 1.5 3.1-5.1-3.8-6-6.1-15.3-13.7-25.9-21-6.4-4.4-14.2-8.2-24-11.5l-8.5-3 6 .7c3.3.3 10.1 1.3 15 2.1 5 .9 10.6 1.7 12.7 1.7 2 .1 3.4.4 3.2.7-.2.4 1.8 1.2 4.4 1.9 12.2 3.1 19 5.4 23 7.7l4.2 2.5v-50.6c0-27.8-.4-50.6-.9-50.6-.4 0-.6-1.1-.4-2.4.5-2.6-1.5-4.6-2.7-2.6-.4.7-.5 2.1-.3 3.1.4 1.3 0 1.9-1.1 1.9-1.2 0-1.5-.6-1-2.4.3-1.3.1-2.7-.5-3-.7-.5-1.1.4-1.1 2.2 0 2.8-1.5 4.2-4.3 4.2-.7 0-.6-.4.2-.9 1-.6-.1-.8-3-.4-2.4.3-5 1-5.6 1.6-1 .7-1.3.2-1.3-2 0-2.9-1.5-5.3-3.3-5.3-.5 0-.6 1.1-.3 2.5.4 1.7.2 2.5-.6 2.5-.7 0-.2.7 1 1.6l2.3 1.6-3.8 1.9c-4.9 2.5-5.3 2.4-5.3-1.1 0-3 1.4-4.1 2.3-1.8.2.7.4.2.5-1.2 0-1.4.1-3.1.3-3.9.2-.7-.2-1.6-.9-1.8-.8-.3-1 .1-.6 1.1zm22.1 8.8c-.3.8-.6.5-.6-.6-.1-1.1.2-1.7.5-1.3.3.3.4 1.2.1 1.9zm-53.7.9c0 .5-.4.9-1 .9-.5 0-1-.7-1-1.6 0-.8.5-1.2 1-.9.6.3 1 1 1 1.6zm49-.2c0 .5-.6 1.1-1.3 1.4-1.5.6-2.1 6.3-.7 7.2.5.3 1 1 1 1.6 0 1.2-3.7 1.2-4.5-.1-.3-.6-1.8-1.1-3.3-1.1-2.5-.2-2.6-.2-.3-.6 1.3-.3 2.6-1.3 2.8-2.4.3-1 1.2-1.9 2.1-1.9 1.3 0 1.3-.3.4-1.2-1-1-1.5-1-2.1 0-.5.8-1.9 1.2-3.2 1l-2.4-.4 2.8-1.2c1.5-.6 2.7-1.6 2.7-2.2 0-.5 1.4-1 3-1 1.7 0 3 .4 3 .9zm3 6.7c0 .8-.4 1.4-1 1.4-.5 0-1-.9-1-2.1 0-1.1.5-1.7 1-1.4.6.3 1 1.3 1 2.1zm-18 3.4c0 .5-.4 1-.9 1-.6 0-1.3-.5-1.6-1-.3-.6.1-1 .9-1 .9 0 1.6.4 1.6 1zm-43.5 7c-.3.5-1.1 1-1.6 1-.6 0-.7-.5-.4-1 .3-.6 1.1-1 1.6-1 .6 0 .7.4.4 1zm35.1 2.6c-.3.9-.6 2.2-.6 3 0 .8-.3 1.4-.7 1.4-.5 0-.8-1.4-.8-3 0-1.9.5-3 1.4-3 .8 0 1.1.6.7 1.6zm32.4-.6c0 .5-.4 1-1 1-.5 0-1-.5-1-1 0-.6.5-1 1-1 .6 0 1 .4 1 1zm-65.3 7.7c-1.1 1-2.7-.8-2.7-3v-2.1l1.6 2.2c.9 1.3 1.4 2.6 1.1 2.9zm37.3.3c1.3.8 1.3 1-.2 1-.9 0-2-.5-2.3-1-.8-1.3.5-1.3 2.5 0zm-32.3 2.2c-.3.8-.6.5-.6-.6-.1-1.1.2-1.7.5-1.3.3.3.4 1.2.1 1.9zm-12.2-.2c.3.5-.3 1-1.4 1-1.1 0-2.3-.5-2.6-1-.3-.6.3-1 1.4-1 1.1 0 2.3.4 2.6 1zm45.2 2.2c-.3.8-.6.5-.6-.6-.1-1.1.2-1.7.5-1.3.3.3.4 1.2.1 1.9zm-37 .4c-.3.3-1.2.4-1.9.1-.8-.3-.5-.6.6-.6 1.1-.1 1.7.2 1.3.5zm-15.4 3.1c-.7.2-1.9.2-2.5 0-.7-.3-.2-.5 1.2-.5s1.9.2 1.3.5zm2.1 2.9c1.7.7 2.2 3.4.6 3.4-.5 0-1-.5-1-1 0-.6-1.1-1-2.5-1s-2.5-.5-2.5-1c0-1.1 3-1.3 5.4-.4zm10.3 1.6c-.3.8-.6.5-.6-.6-.1-1.1.2-1.7.5-1.3.3.3.4 1.2.1 1.9zm19.3-.7c0 .8.7 1.5 1.5 1.5s1.5.4 1.5.9c0 .6-.9.9-2 .8-1.1-.1-2-.4-2-.8s-.3-1.4-.6-2.3c-.3-.9-.1-1.6.5-1.6s1.1.7 1.1 1.5zm-15.5 1.5c.3.5-.1 1-.9 1-.9 0-1.6-.5-1.6-1 0-.6.4-1 .9-1 .6 0 1.3.4 1.6 1zm-.5 35.4c0 .2-.7.7-1.6 1-.8.3-1.2.2-.9-.4.6-1 2.5-1.4 2.5-.6zm-2 2.9c1.1.5.9.6-.4.4-1.1-.1-2.1-.9-2.3-1.7-.3-1-.2-1.1.4-.4.4.6 1.5 1.4 2.3 1.7zM315 209.4c0 3.6.4 6.7.9 7.1 1.2.7 2.5-5.8 2.2-11.3 0-1.2-.7-2.2-1.6-2.2-1.2 0-1.5 1.4-1.5 6.4zM324.2 205c-1 1.7-1 2 .3 2 .8 0 1.5-.9 1.5-2s-.1-2-.3-2c-.1 0-.8.9-1.5 2zM328.8 204.7c-2.8.7-2.1 2.1.7 1.5 1.4-.2 2.5-.8 2.5-1.3 0-.9-.4-1-3.2-.2z"/><path d="M336 204.9c0 .5.7 1.4 1.5 2.1 1.2 1 1.5 1 1.5-.3 0-.8-.7-1.7-1.5-2.1-.8-.3-1.5-.2-1.5.3zM359.3 207.8c-.8.5-.9 1.3-.3 2.2.8 1.3 1 1.3 1-.2 0-.9.6-1.9 1.3-2.1.6-.3.8-.6.2-.6-.5 0-1.5.3-2.2.7zM4.8 208.7c.7.3 1.6.2 1.9-.1.4-.3-.2-.6-1.3-.5-1.1 0-1.4.3-.6.6zM11.5 210c-.3.5-.1 1 .4 1 .6 0 1.1-.5 1.1-1 0-.6-.2-1-.4-1-.3 0-.8.4-1.1 1zM31 209.4c0 .2.7.6 1.5 1 .8.3 1.5.1 1.5-.4 0-.6-.7-1-1.5-1s-1.5.2-1.5.4zM41 221c0 .5.5 1 1 1 .6 0 1-.5 1-1 0-.6-.4-1-1-1-.5 0-1 .4-1 1zM21 222.1c0 .4.6.9 1.3 1.2.8.3 1.4 0 1.4-.7s-.6-1.3-1.4-1.3c-.7 0-1.3.4-1.3.8zM316.1 223.6c0 1.1.3 1.4.6.6.3-.7.2-1.6-.1-1.9-.3-.4-.6.2-.5 1.3zM9 224.7c0 1.2.5 2.5 1.1 2.8 1.7 1.1 1.8.2.4-2.5-1.4-2.4-1.4-2.4-1.5-.3zM316 227.5c-1.2 1.4-1.2 1.8.1 2.5 1 .7 1.5.5 1.7-.5.6-2.8-.3-3.8-1.8-2zM20.1 233.6c0 1.1.3 1.4.6.6.3-.7.2-1.6-.1-1.9-.3-.4-.6.2-.5 1.3zM42 240c0 .5.5 1 1.1 1 .5 0 .7-.5.4-1-.3-.6-.8-1-1.1-1-.2 0-.4.4-.4 1zM18.5 242c.3.5.8 1 1.1 1 .2 0 .4-.5.4-1 0-.6-.5-1-1.1-1-.5 0-.7.4-.4 1zM32.6 243.1c-1.5 1.8-1.6 2.3-.3 3.7.8 1 1.7 2.4 2 3.2.4 1.1.6.9.6-.6.1-1.1-.4-2.5-1.1-3.2-.8-.8-.8-1.5.2-2.7.7-.8 1.1-1.7.8-2-.2-.2-1.2.5-2.2 1.6zM8.2 244c.7 1.1 1.7 2 2.2 2 .5 0 .1-.9-.9-2s-2-2-2.2-2c-.2 0 .2.9.9 2zM290 243.6c0 .8.5 1.2 1 .9.6-.4.8-1.1.5-1.6-.9-1.4-1.5-1.1-1.5.7zM279.5 244.9c-.3.5-.1 1.2.5 1.6.5.3 1-.1 1-.9 0-1.8-.6-2.1-1.5-.7zM292.8 248.7c.6.2 1.8.2 2.5 0 .6-.3.1-.5-1.3-.5-1.4 0-1.9.2-1.2.5zM288 250.5c0 .9.6 1.2 1.5.9.8-.4 1.2-1 .9-1.5-.8-1.4-2.4-1-2.4.6zM4 251c0 .5.5 1 1 1 .6 0 1-.5 1-1 0-.6-.4-1-1-1-.5 0-1 .4-1 1zM16.5 252c-.3.6.1.7.9.4 1.8-.7 2.1-1.4.7-1.4-.6 0-1.3.4-1.6 1zM21.5 252c-.3.5-.1 1 .4 1 .6 0 1.1-.5 1.1-1 0-.6-.2-1-.4-1-.3 0-.8.4-1.1 1zM31 252c0 .5.5 1 1.1 1 .5 0 .7-.5.4-1-.3-.6-.8-1-1.1-1-.2 0-.4.4-.4 1zM17 255.1c0 .5.5.7 1 .4.6-.3 1-.8 1-1.1 0-.2-.4-.4-1-.4-.5 0-1 .5-1 1.1zM37.8 258.6c-.3 1.1.1 2.5.9 3.2 1.5 1.5 1.7.1.4-3.2-.8-2-.8-2-1.3 0zM6.6 259.5c.4.8.8 1.5 1 1.5.2 0 .4-.7.4-1.5s-.4-1.5-1-1.5c-.5 0-.7.7-.4 1.5zM9 264.6c0 .8.5 1.2 1 .9.6-.4.8-1.1.5-1.6-.9-1.4-1.5-1.1-1.5.7zM29 265c0 .5.5 1 1.1 1 .5 0 .7-.5.4-1-.3-.6-.8-1-1.1-1-.2 0-.4.4-.4 1zM24 270c0 .6.7 1 1.5 1s1.5-.2 1.5-.4-.7-.6-1.5-1c-.8-.3-1.5-.1-1.5.4zM41.3 270.5c0 .8.4 1.5.9 1.5.4 0 .8-.4.8-.9 0-.6-.4-1.2-.8-1.5-.5-.3-.9.1-.9.9zM5 270.9c0 .6.5 1.3 1 1.6.6.3 1-.1 1-.9 0-.9-.4-1.6-1-1.6-.5 0-1 .4-1 .9zM21.1 274.6c0 1.1.3 1.4.6.6.3-.7.2-1.6-.1-1.9-.3-.4-.6.2-.5 1.3zM10.1 275.6c0 1.1.3 1.4.6.6.3-.7.2-1.6-.1-1.9-.3-.4-.6.2-.5 1.3zM11.7 278.9c-.3 1.1.1 2.2.8 2.5 1.8.7 2.7-2 1.1-3.3-1-.9-1.5-.7-1.9.8zM7.2 281c0 1.4.2 1.9.5 1.2.2-.6.2-1.8 0-2.5-.3-.6-.5-.1-.5 1.3zM9.1 281.6c0 1.1.3 1.4.6.6.3-.7.2-1.6-.1-1.9-.3-.4-.6.2-.5 1.3zM51.1 298.6c0 1.1.3 1.4.6.6.3-.7.2-1.6-.1-1.9-.3-.4-.6.2-.5 1.3zM51.1 304.6c0 1.1.3 1.4.6.6.3-.7.2-1.6-.1-1.9-.3-.4-.6.2-.5 1.3zM65.2 309.7c.2 1 1.1 1.9 2.1 2.1 1.6.3 1.7.1.5-1.7-1.6-2.5-3.1-2.7-2.6-.4zM56 314.9c0 1.1.5 2.3 1 2.6.6.3 1-.3 1-1.4 0-1.1-.4-2.3-1-2.6-.5-.3-1 .3-1 1.4zM10.5 321.5c-4.3 2.6-6 3.1-5 1.5.3-.6.2-1-.4-1-1.9 0-2.3 2.1-.7 3.9.9 1 1.6 3.3 1.7 5.2.2 5.4 1.3 8.1 3.7 9 1.4.5 2.1.5 1.7-.1-.3-.5.4-1.4 1.5-2 1.7-.9 2-.8 2.1.7 0 1 .5.3 1-1.5.6-2.1.6-3.9-.1-5.2-.7-1.2-.7-2-.1-2 .5 0 .8-.9.6-2-.2-1.2.2-2.3 1-2.6 1.1-.5 1.2-1.1.4-2.5-.5-1.1-1.4-1.7-1.9-1.4-.5.3-1-.2-1.2-1-.2-1.2-1-1-4.3 1zm4.7 3.7c-.7.7-1.2.8-1.2.2 0-1.4 1.2-2.6 1.9-1.9.2.3-.1 1.1-.7 1.7zM58.8 325.1c.2 1.6.8 2.9 1.2 2.9.9 0 .1-4.8-.9-5.5-.4-.2-.5.9-.3 2.6zM346 325.4c.8 1 1.9 2.7 2.5 3.8.5 1.2 1.3 1.9 1.7 1.7.4-.2 2.4 1.6 4.6 4 2.4 2.6 4.2 3.9 4.6 3.3.4-.6-.3-1.6-1.4-2.2-1.1-.6-1.8-1.5-1.6-1.9.3-.4-.2-1.5-1.2-2.4-4.8-4.5-6.2-5.7-8.4-6.8-2.1-1.1-2.2-1.1-.8.5zM23.5 326c.3.5.8 1 1.1 1 .2 0 .4-.5.4-1 0-.6-.5-1-1.1-1-.5 0-.7.4-.4 1zM36 328.5c0 .8.4 1.5 1 1.5.5 0 .7-.7.4-1.5-.4-.8-.8-1.5-1-1.5-.2 0-.4.7-.4 1.5zM26.4 331.1c-.3.6-.1 1.6.5 2.2.8.8 1.1.5 1.1-1.1 0-2.4-.5-2.8-1.6-1.1zM70.5 333.9c-.3.5-.2 1.2.3 1.5.5.3.9-.1.9-.9 0-1.7-.3-1.9-1.2-.6zM64 334.9c0 .5.7 1.2 1.6 1.5 1.4.5 1.5.4.4-.9-1.4-1.7-2-1.9-2-.6zM29 336c0 .5.5 1 1.1 1 .5 0 .7-.5.4-1-.3-.6-.8-1-1.1-1-.2 0-.4.4-.4 1zM27.1 347.6c0 1.1.3 1.4.6.6.3-.7.2-1.6-.1-1.9-.3-.4-.6.2-.5 1.3zM73.1 347.6c0 1.1.3 1.4.6.6.3-.7.2-1.6-.1-1.9-.3-.4-.6.2-.5 1.3zM49.5 348c-.3.5-.1 1 .4 1 .6 0 1.1-.5 1.1-1 0-.6-.2-1-.4-1-.3 0-.8.4-1.1 1zM23.9 348.7c-.7 3.9-.3 6 .8 5.6.8-.3 1.3-.2 1.2.3-.1.5-.1 1.8 0 2.9.1 1.7.3 1.8 1.1.4 1.1-1.8.2-6.1-1.1-5.3-.9.5-1.3-.9-1-3.4.2-1.3-.8-1.7-1-.5zM64 351.1c0 .5.5.7 1 .4.6-.3 1-.8 1-1.1 0-.2-.4-.4-1-.4-.5 0-1 .5-1 1.1zM43.5 351.9c-.3.5-.2 1.2.3 1.5.5.3.9-.1.9-.9 0-1.7-.3-1.9-1.2-.6zM31 356c0 .5.5 1 1.1 1 .5 0 .7-.5.4-1-.3-.6-.8-1-1.1-1-.2 0-.4.4-.4 1z"/><path d="M23 357.1c0 .5.5.7 1 .4.6-.3 1-.8 1-1.1 0-.2-.4-.4-1-.4-.5 0-1 .5-1 1.1zM34.1 357.6c0 1.1.3 1.4.6.6.3-.7.2-1.6-.1-1.9-.3-.4-.6.2-.5 1.3zM41.6 364.3c.3 1 .9 1.5 1.2 1.2.3-.3 0-1.1-.7-1.8-1-.9-1.1-.8-.5.6zM16.8 365.7c-.3 1.3-.2 2.3.3 2.3s1.4 1 1.9 2.2c.8 2.2.9 2.2.9-.5.1-1.6-.3-2.6-.8-2.2-.5.3-1.1-.5-1.3-1.7l-.3-2.3-.7 2.2zM43.6 366.9c-.4.7-.5 1.5-.2 1.8.9.9 1.9-.4 1.4-1.8-.4-1.1-.6-1.1-1.2 0zM54 369.5c0 .8.2 1.5.4 1.5s.6-.7 1-1.5c.3-.8.1-1.5-.4-1.5-.6 0-1 .7-1 1.5zM17.2 374c0 1.4.2 1.9.5 1.2.2-.6.2-1.8 0-2.5-.3-.6-.5-.1-.5 1.3zM75 373c0 .5.5 1 1 1 .6 0 1-.5 1-1 0-.6-.4-1-1-1-.5 0-1 .4-1 1zM0 377.9c0 1.2.5 2.1 1 2.1.6 0 1-.6 1-1.4 0-.8-.4-1.8-1-2.1-.5-.3-1 .3-1 1.4zM20 377.1c0 .5.5.7 1 .4.6-.3 1-.8 1-1.1 0-.2-.4-.4-1-.4-.5 0-1 .5-1 1.1zM46 378c0 .5.5 1 1.1 1 .5 0 .7-.5.4-1-.3-.6-.8-1-1.1-1-.2 0-.4.4-.4 1zM63.5 379c-.3.5-.1 1 .4 1 .6 0 1.1-.5 1.1-1 0-.6-.2-1-.4-1-.3 0-.8.4-1.1 1zM371 380c0 .5.5 1 1.1 1 .5 0 .7-.5.4-1-.3-.6-.8-1-1.1-1-.2 0-.4.4-.4 1zM78 382c0 .5.5 1 1.1 1 .5 0 .7-.5.4-1-.3-.6-.8-1-1.1-1-.2 0-.4.4-.4 1zM22.4 383.8c.3.5 0 1.3-.6 1.5-.9.4-1 .6-.1.6 1.7.1 2.5-1.6 1.2-2.5-.7-.4-.9-.3-.5.4zM26.5 385c-.3.5-.1 1 .4 1 .6 0 1.1-.5 1.1-1 0-.6-.2-1-.4-1-.3 0-.8.4-1.1 1zM73.5 386c-.3.5-.1 1 .4 1 .6 0 1.1-.5 1.1-1 0-.6-.2-1-.4-1-.3 0-.8.4-1.1 1zM3.2 391c0 1.4.2 1.9.5 1.2.2-.6.2-1.8 0-2.5-.3-.6-.5-.1-.5 1.3zM70 395.1c-.8 1.1-2.5 2.1-3.7 2.2-2.4.1-3.3 2.7-.9 2.7 1.5 0 6.6-4.8 6.6-6.1 0-1.3-.3-1.1-2 1.2zM379.7 395.1c.7.7 1.5 1 1.8.7.3-.3-.2-.9-1.2-1.2-1.4-.6-1.5-.5-.6.5zM15.5 397.1c-1.6.6-1.6.8-.3.8.9.1 1.8.7 2.1 1.3.2.7.7 1.1.9.8.3-.3.3-1.2-.1-2.1-.4-1.2-1.2-1.4-2.6-.8z"/></svg>